<?xml version="1.0" encoding="UTF-8"?>
<svg width="100px" height="60px" viewBox="0 0 100 60" version="1.1" xmlns="http://www.w3.org/2000/svg" xmlns:xlink="http://www.w3.org/1999/xlink">
    <title>Amazon</title>
    <g id="Amazon" stroke="none" stroke-width="1" fill="none" fill-rule="evenodd">
        <path d="M59.6304352,39.8534544 C54.9815,43.280088 48.2431512,45.1083208 42.4415616,45.1083208 C34.3067928,45.1083208 26.9834152,42.0995712 21.4429968,37.0954352 C21.007704,36.7019272 21.3977248,36.1656472 21.9200792,36.472092 C27.8992712,39.9509608 35.2923,42.0438528 42.9290912,42.0438528 C48.0794816,42.0438528 53.745264,40.978252 58.9548584,38.7669624 C59.7418688,38.4326544 60.4000328,39.2823496 59.6304352,39.8534544" id="path8" fill="#FFFFFF"></path>
        <path d="M61.5631392,37.642164 C60.9711376,36.883012 57.635048,37.2834816 56.1376392,37.4610816 C55.6814496,37.5168 55.6118056,37.1198112 56.02272,36.8342568 C58.6797528,34.964236 63.0396552,35.5040008 63.5480776,36.1308224 C64.0564992,36.7611288 63.4157488,41.1314784 60.9189032,43.2174032 C60.5358448,43.5377784 60.1701984,43.3671456 60.3408344,42.9422976 C60.901492,41.5423928 62.1586216,38.4047984 61.5631392,37.642164" id="path10" fill="#FFFFFF"></path>
        <path d="M56.2421096,23.6326729 L56.2421096,21.8148871 C56.2421096,21.5397817 56.4510504,21.3552174 56.70178,21.3552174 L64.8400272,21.3552174 C65.1012048,21.3552174 65.3101456,21.5432645 65.3101456,21.8148871 L65.3101456,23.3714972 C65.3066656,23.6326729 65.0872752,23.973943 64.6972504,24.513707 L60.4801272,30.5346888 C62.0471856,30.4963856 63.7013016,30.7297 65.1221,31.5306408 C65.4424752,31.7117224 65.5295344,31.9763808 65.5539104,32.2375592 L65.5539104,34.177228 C65.5539104,34.4418856 65.2613928,34.751812 64.9549464,34.5916256 C62.4511368,33.2787792 59.1254936,33.1360032 56.3570264,34.605556 C56.0749568,34.75878 55.7789576,34.4523336 55.7789576,34.1876736 L55.7789576,32.345512 C55.7789576,32.0495128 55.7824376,31.5445696 56.0784368,31.0953472 L60.9641736,24.088861 L56.7122264,24.088861 C56.4510504,24.088861 56.2421096,23.9042982 56.2421096,23.6326729" id="path12" fill="#FFFFFF"></path>
        <path d="M26.5550848,34.9746832 L24.0791352,34.9746832 C23.8423368,34.9572736 23.6542896,34.7796736 23.6368768,34.5533184 L23.6368768,21.8462307 C23.6368768,21.5920192 23.8493008,21.3900414 24.1139584,21.3900414 L26.4227552,21.3900414 C26.66304,21.4004814 26.8545664,21.5850523 26.87198,21.8148871 L26.87198,23.4759697 L26.9172504,23.4759697 C27.519696,21.8706048 28.6514584,21.1218998 30.176728,21.1218998 C31.7263728,21.1218998 32.6944664,21.8706048 33.390936,23.4759697 C33.9899,21.8706048 35.3514976,21.1218998 36.8106032,21.1218998 C37.8483432,21.1218998 38.9835888,21.5502286 39.6765768,22.511357 C40.4601048,23.580438 40.299916,25.1335654 40.299916,26.4951655 L40.296436,34.5150152 C40.296436,34.7692256 40.084012,34.9746832 39.8193544,34.9746832 L37.3468848,34.9746832 C37.09964,34.9572736 36.9011464,34.75878 36.9011464,34.5150152 L36.9011464,27.7801515 C36.9011464,27.2438703 36.949896,25.9066482 36.8314984,25.3982238 C36.6469344,24.5450506 36.0932416,24.3047662 35.3758752,24.3047662 C34.7769112,24.3047662 34.1500896,24.7052366 33.8958776,25.3459902 C33.6416656,25.9867425 33.6660424,27.0593036 33.6660424,27.7801515 L33.6660424,34.5150152 C33.6660424,34.7692256 33.4536192,34.9746832 33.18896,34.9746832 L30.7164944,34.9746832 C30.4657648,34.9572736 30.2707528,34.75878 30.2707528,34.5150152 L30.2672728,27.7801515 C30.2672728,26.3628362 30.5005872,24.2769079 28.742004,24.2769079 C26.9625216,24.2769079 27.0321688,26.3105988 27.0321688,27.7801515 L27.0321688,34.5150152 C27.0321688,34.7692256 26.8197448,34.9746832 26.5550872,34.9746832" id="path14" fill="#FFFFFF"></path>
        <path d="M72.316632,21.1218998 C75.9905104,21.1218998 77.9789296,24.2769079 77.9789296,28.2885746 C77.9789296,32.164428 75.7815656,35.2393416 72.316632,35.2393416 C68.7089176,35.2393416 66.744872,32.0843336 66.744872,28.1527626 C66.744872,24.1968135 68.7332936,21.1218998 72.316632,21.1218998 M72.3375248,23.7162514 C70.5127752,23.7162514 70.3978414,26.2026462 70.3978414,27.7522934 C70.3978414,29.3054208 70.37348,32.620616 72.316632,32.620616 C74.2354056,32.620616 74.325948,29.9461744 74.325948,28.3164314 C74.325948,27.2438703 74.2806768,25.9623658 73.9568168,24.9455183 C73.6782288,24.0610042 73.1245376,23.7162514 72.3375248,23.7162514" id="path16" fill="#FFFFFF"></path>
        <path d="M82.742784,34.9746832 L80.2772816,34.9746832 C80.0300336,34.9572736 79.83154,34.75878 79.83154,34.5150152 L79.82806,21.8044402 C79.8489544,21.5711226 80.0544144,21.3900414 80.3051424,21.3900414 L82.600012,21.3900414 C82.8159152,21.4004814 82.9935152,21.5467472 83.0422704,21.7452411 L83.0422704,23.6883905 L83.0875384,23.6883905 C83.780528,21.9506992 84.7521,21.1218998 86.4619336,21.1218998 C87.5728032,21.1218998 88.6558144,21.5223705 89.352284,22.6193097 C90,23.6361556 90,25.3459902 90,26.5752572 L90,34.5742152 C89.9721424,34.7970832 89.7666824,34.9746832 89.5229208,34.9746832 L87.0400048,34.9746832 C86.8136504,34.9572736 86.6256032,34.7901208 86.6012296,34.5742152 L86.6012296,27.6721991 C86.6012296,26.2827419 86.7614168,24.2490484 85.0515824,24.2490484 C84.4491376,24.2490484 83.8954432,24.653003 83.6203376,25.2658945 C83.272104,26.0424602 83.2268328,26.8155417 83.2268328,27.6721991 L83.2268328,34.5150152 C83.2233528,34.7692256 83.0074456,34.9746832 82.742788,34.9746832" id="path18" fill="#FFFFFF"></path>
        <path d="M49.7544928,28.9049501 C49.7544928,29.86956 49.7788688,30.6739824 49.29134,31.5306408 C48.8978352,32.2271128 48.2710128,32.6554408 47.5780264,32.6554408 C46.6273448,32.6554408 46.0701688,31.9311104 46.0701688,30.8620296 C46.0701688,28.751727 47.9610832,28.368669 49.7544928,28.368669 L49.7544928,28.9049501 M52.2513376,34.93986 C52.0876688,35.0861184 51.8508664,35.0965648 51.6663032,34.9990608 C50.8444672,34.3165208 50.6947272,33.999628 50.2455048,33.3484288 C48.887388,34.7344024 47.922776,35.1488008 46.1641904,35.1488008 C44.0782632,35.1488008 42.4589728,33.8638136 42.4589728,31.2903608 C42.4589728,29.281044 43.5454672,27.9124809 45.0985944,27.2438703 C46.44278,26.651869 48.3197632,26.5474004 49.7544928,26.3837302 L49.7544928,26.0633542 C49.7544928,25.4748354 49.799764,24.7783654 49.4515288,24.2699451 C49.1520472,23.8137556 48.5739752,23.6257087 48.0620712,23.6257087 C47.1183536,23.6257087 46.2791096,24.109755 46.0736496,25.1126714 C46.0318616,25.3355432 45.8681928,25.5549311 45.6418376,25.5653781 L43.2425008,25.3076825 C43.0405232,25.2624144 42.814172,25.0987416 42.873372,24.788815 C43.4235832,21.8775717 46.05624,21.0000174 48.4103056,21.0000174 C49.6151992,21.0000174 51.18922,21.3203942 52.1399016,22.2327689 C53.3447928,23.3575674 53.2298768,24.8584598 53.2298768,26.4916828 L53.2298768,30.3501248 C53.2298768,31.5097488 53.7104408,32.0181688 54.1631456,32.6449944 C54.3198536,32.8678624 54.3546768,33.1360032 54.1526888,33.303156 C53.6477488,33.7245224 52.7493016,34.5080504 52.2548088,34.9468256 L52.2513288,34.9398496" id="path28" fill="#FFFFFF"></path>
        <path d="M17.295521,28.9049501 C17.295521,29.86956 17.319895,30.6739824 16.8323686,31.5306408 C16.438861,32.2271128 15.8155211,32.6554408 15.1190512,32.6554408 C14.1683698,32.6554408 13.6146774,31.9311104 13.6146774,30.8620296 C13.6146774,28.751727 15.505592,28.368669 17.295521,28.368669 L17.295521,28.9049501 M19.792364,34.93986 C19.6286944,35.0861184 19.391892,35.0965648 19.207328,34.9990608 C18.385496,34.3165208 18.2392352,33.999628 17.7865302,33.3484288 C16.4284139,34.7344024 15.4672882,35.1488008 13.7052174,35.1488008 C11.6227718,35.1488008 9.99999983,33.8638136 9.99999983,31.2903608 C9.99999983,29.281044 11.0899747,27.9124809 12.6396193,27.2438703 C13.9838056,26.651869 15.8607918,26.5474004 17.295521,26.3837302 L17.295521,26.0633542 C17.295521,25.4748354 17.3407918,24.7783654 16.9960389,24.2699451 C16.6930725,23.8137556 16.1150046,23.6257087 15.6065802,23.6257087 C14.6628658,23.6257087 13.8201355,24.109755 13.6146774,25.1126714 C13.5728882,25.3355432 13.409218,25.5549311 13.1863488,25.5653781 L10.7835283,25.3076825 C10.5815517,25.2624144 10.3586811,25.0987416 10.4143988,24.788815 C10.9680925,21.8775717 13.5972649,21.0000174 15.9513345,21.0000174 C17.156225,21.0000174 18.7302464,21.3203942 19.680928,22.2327689 C20.8858216,23.3575674 20.7709024,24.8584598 20.7709024,26.4916828 L20.7709024,30.3501248 C20.7709024,31.5097488 21.2514688,32.0181688 21.7041744,32.6449944 C21.8643616,32.8678624 21.8991848,33.1360032 21.6972064,33.303156 C21.1922664,33.7245224 20.2938216,34.5080504 19.7993256,34.9468256 L19.7923656,34.9398496" id="path30" fill="#FFFFFF"></path>
    </g>
</svg>