<?xml version="1.0" encoding="UTF-8"?>
<svg width="60px" height="60px" viewBox="0 0 60 60" version="1.1" xmlns="http://www.w3.org/2000/svg" xmlns:xlink="http://www.w3.org/1999/xlink">
    <title>Apple</title>
    <g id="Apple" stroke="none" stroke-width="1" fill="none" fill-rule="evenodd">
        <g id="Apple_logo_black" transform="translate(13.000000, 8.000000)" fill="#FFFFFF" fill-rule="nonzero">
            <path d="M32.9643717,31.1511061 C32.3598609,32.5476505 31.6443168,33.8331616 30.8152727,35.0150438 C29.6852061,36.6262492 28.759934,37.7415118 28.0468572,38.3608283 C26.9414657,39.3773939 25.7571168,39.8980135 24.4888764,39.9276229 C23.5784088,39.9276229 22.4804185,39.6685455 21.2023091,39.1429933 C19.9200054,38.6199024 18.7415781,38.3608283 17.6640673,38.3608283 C16.5340013,38.3608283 15.3220175,38.6199024 14.0256495,39.1429933 C12.7273061,39.6685455 11.6813788,39.9424276 10.8816963,39.969569 C9.66551818,40.0213838 8.45328889,39.4859596 7.24327845,38.3608283 C6.47098519,37.687229 5.50500101,36.5324882 4.34779293,34.8966061 C3.10620121,33.1496943 2.08544067,31.1239646 1.28575852,28.8144848 C0.429326431,26.3199502 0,23.9043724 0,21.5657781 C0,18.8869296 0.578850471,16.5764626 1.73827842,14.640299 C2.64948667,13.085102 3.86171684,11.8583138 5.37891616,10.9577148 C6.89611684,10.0571172 8.53545286,9.59818215 10.3008731,9.56881953 C11.2668566,9.56881953 12.5336172,9.86762088 14.1078135,10.4548606 C15.677569,11.0440741 16.6854993,11.3428754 17.1274088,11.3428754 C17.4577926,11.3428754 18.5774956,10.9934919 20.4756613,10.2969478 C22.2706906,9.65098418 23.7856694,9.38351785 25.026768,9.48887542 C28.3898253,9.76028889 30.9164357,11.0860195 32.5967306,13.4744559 C29.5889788,15.2968727 28.1011404,17.8493906 28.1307488,21.1238677 C28.1578902,23.6744114 29.0831623,25.7968626 30.901631,27.4820933 C31.7257397,28.2642556 32.6460781,28.868767 33.6700438,29.2980939 C33.4479815,29.9420832 33.2135791,30.5589316 32.9643717,31.1511061 Z M25.2513017,0.799704949 C25.2513017,2.79881034 24.5209522,4.66536936 23.0651912,6.39303704 C21.3084061,8.44689596 19.1834882,9.63371145 16.8791892,9.4464367 C16.8498276,9.20660572 16.8328024,8.95419192 16.8328024,8.68894747 C16.8328024,6.76980842 17.668262,4.71595051 19.1519061,3.03664266 C19.8926162,2.1863797 20.834667,1.47939754 21.9770704,0.915424478 C23.1170057,0.359866229 24.1952569,0.0526305522 25.2093545,1.77556822e-05 C25.2389653,0.267266916 25.2513017,0.534532896 25.2513017,0.799679024 L25.2513017,0.799704949 Z" id="path4"></path>
        </g>
    </g>
</svg>