<svg height="24" viewBox="0 0 24 24" width="24" xmlns="http://www.w3.org/2000/svg" xmlns:xlink="http://www.w3.org/1999/xlink"><linearGradient id="a" x1="4.546689%" x2="36.948096%" y1="56.05117%" y2="41.799482%"><stop offset="0" stop-color="#a52714" stop-opacity=".6"/><stop offset=".66" stop-color="#a52714" stop-opacity="0"/></linearGradient><linearGradient id="b"><stop offset="0" stop-color="#3e2723" stop-opacity=".2"/><stop offset="1" stop-color="#3e2723" stop-opacity="0"/></linearGradient><radialGradient id="c" cx="-.157205%" cy=".103627%" gradientTransform="matrix(1 0 0 .583251 0 .000432)" r="136.321397%" xlink:href="#b"/><linearGradient id="d" x1="77.759414%" x2="38.783313%" y1="87.775828%" y2="66.355316%"><stop offset="0" stop-color="#055524" stop-opacity=".4"/><stop offset=".33" stop-color="#055524" stop-opacity="0"/></linearGradient><radialGradient id="e" cx="10.329727%" cy="-12.214834%" gradientTransform="matrix(1 0 0 .496419 0 -.061511)" r="226.352396%"><stop offset="0" stop-color="#263238" stop-opacity=".2"/><stop offset="1" stop-color="#263238" stop-opacity="0"/></radialGradient><linearGradient id="f" x1="40.99375%" x2="49.249713%" y1="-4.840625%" y2="45.414063%"><stop offset="0" stop-color="#ea6100" stop-opacity=".3"/><stop offset=".66" stop-color="#ea6100" stop-opacity="0"/></linearGradient><radialGradient id="g" cx="-4.872449%" cy="-.24821%" gradientTransform="matrix(.267219 0 0 1 -.035704 0)" r="401.326969%" xlink:href="#b"/><radialGradient id="h" cx="14.935227%" cy="13.644318%" r="100.426136%"><stop offset="0" stop-color="#fff" stop-opacity=".1"/><stop offset="1" stop-color="#fff" stop-opacity="0"/></radialGradient><mask id="i" fill="#fff"><circle cx="10" cy="10" fill="#fff" fill-rule="evenodd" r="10"/></mask><g fill="none" fill-rule="nonzero" transform="translate(2 2)"><g mask="url(#i)"><g transform="translate(1.477273)"><path d="m8.52272727 0c3.88591483 0 7.25414483 2.2164725 8.90941083 5.45413844l-8.90941083.00040701c-2.51038522 0-4.54545454 2.03506932-4.54545454 4.54545455 0 .7889782.20101501 1.5310069.55462446 2.1776654l.05446645.0950619h-4.47613637l-.00143163-7.67921111c1.7793447-2.76341595 4.88291676-4.59351619 8.41393163-4.59351619z" fill="#db4437"/><path d="m8.52272727 0c3.88591483 0 7.25414483 2.2164725 8.90941083 5.45413844l-8.90941083.00040701c-2.51038522 0-4.54545454 2.03506932-4.54545454 4.54545455 0 .7889782.20101501 1.5310069.55462446 2.1776654l.05446645.0950619h-4.47613637l-.00143163-7.67921111c1.7793447-2.76341595 4.88291676-4.59351619 8.41393163-4.59351619z" fill="url(#a)"/><path d="m4.69431818 12.2329545-4.52613636-7.76249995-.06590909.11363636 4.49318182 7.70454549z" fill="#3e2723" fill-opacity=".15"/><path d="m.11022727 4.59659091 4.06670212 4.0669289c-.12979771.4225635-.19965666.87136363-.19965666 1.33648019 0 .7889782.20101501 1.5310069.55462446 2.1776654z" fill="url(#c)"/><path d="m.10832734 4.59424355 4.47689993 7.67848375c.79090909 1.3568182 2.25568182 2.2727272 3.9375 2.2727272 1.60428723 0 3.01184733-.834537 3.82042523-2.0904841l.111393-.1822431h.0068181v.1136363c-.7920454 1.3579546-2.2568181 2.2727273-3.93749996 2.2727273-1.6053719 0-3.01298131-.834537-3.82156146-2.0904841l-.11139309-.1822432h-.00454545l-4.51291355-7.73755658z" fill="#fff" fill-opacity=".1"/></g></g><g mask="url(#i)"><g transform="translate(0 3.818182)"><path d="m1.58624918.77505357 4.47738718 7.67949188c.78531286 1.35887119 2.25411699 2.27272725 3.93636364 2.27272725 1.6822467 0 3.1510508-.91385606 3.9370548-2.27221065l.0004452 3.30857435-4.40761824 4.4073264c-5.30457837-.2454901-9.52988176-4.6238811-9.52988176-9.98914462 0-1.99195223.58241644-3.8478738 1.58624918-5.40676461z" fill="#0f9d58"/><path d="m1.58624918.77505357 4.47738718 7.67949188c.78531286 1.35887119 2.25411699 2.27272725 3.93636364 2.27272725 1.6822467 0 3.1510508-.91385606 3.9370548-2.27221065l.0004452 3.30857435-4.40761824 4.4073264c-5.30457837-.2454901-9.52988176-4.6238811-9.52988176-9.98914462 0-1.99195223.58241644-3.8478738 1.58624918-5.40676461z" fill="url(#d)"/><path d="m13.8454545 8.60568182-.0943181-.05454546-4.36250004 7.63068184h.13068182l4.32954542-7.57272729z" fill="#263238" fill-opacity=".15"/><path d="m9.52613636 16.1693182 2.38181814-8.88636365 2.0295455 1.1715909z" fill="url(#e)"/><path d="m13.9772727 8.60568182c.3863637-.66818182.6102273-1.44090909.6102273-2.26818182 0-.47954545-.075-.94090909-.2125-1.37386364.1079545.38863637.1704545.79659091.1704545 1.21931819 0 .82727272-.2238636 1.6-.6102272 2.26818181l.0022727.00454546-4.41818182 7.72727268h.13181818l4.32840914-7.57272723z" fill="#fff" fill-opacity=".2"/></g></g><g mask="url(#i)"><g transform="translate(5.431818 4.454545)"><path d="m13.4773425.99910377c.6974331 1.36397901 1.0908393 2.90922242 1.0908393 4.54635078 0 5.52284745-4.4771525 9.99999995-9.99999998 9.99999995-.15849082 0-.31612048-.003687-.47280787-.0109801l4.41030787-7.71629258c.38681216-.66930636.60795454-1.44519153.60795454-2.27272727 0-2.51038523-2.03506932-4.54545455-4.54545454-4.54545455z" fill="#ffcd40"/><path d="m13.4773425.99910377c.6974331 1.36397901 1.0908393 2.90922242 1.0908393 4.54635078 0 5.52284745-4.4771525 9.99999995-9.99999998 9.99999995-.15849082 0-.31612048-.003687-.47280787-.0109801l4.41030787-7.71629258c.38681216-.66930636.60795454-1.44519153.60795454-2.27272727 0-2.51038523-2.03506932-4.54545455-4.54545454-4.54545455z" fill="url(#f)"/><path d="m4.56818182 1v2.38068182l8.90909088-2.38068182z" fill="url(#g)"/><g fill="#3e2723"><path d="m4.56818182.88636364 8.85044168-.00030948.058719.11304961-8.90916068.00089623c-2.4385065 0-4.42876809 1.92058998-4.54050671 4.33149186l-.00494784.21396269v-.11363637c0-2.43850649 1.92058998-4.42876809 4.33149187-4.5405067z" fill-opacity=".2"/><path d="m4.68181818 1c-.01931818 0-.0375.00227273-.05681818.00340909 2.48409091.03068182 4.48863636 2.05113636 4.48863636 4.54204546 0 2.49090909-2.00454545 4.51136365-4.48863636 4.54204545.01931818 0 .0375.0034091.05681818.0034091 2.51022727 0 4.54545455-2.03522728 4.54545455-4.54545455 0-2.51022728-2.03522728-4.54545455-4.54545455-4.54545455z" opacity=".1"/></g></g></g><g mask="url(#i)"><g transform="translate(5.454545 5.454545)"><circle cx="4.545455" cy="4.545455" fill="#f1f1f1" r="4.545455"/><circle cx="4.545455" cy="4.545455" fill="#4285f4" r="3.636364"/></g></g><path d="m10 .11363636c5.5034091 0 9.9681818 4.44659091 9.9988636 9.94318184 0-.0193182.0011364-.0375.0011364-.0568182 0-5.52272727-4.4772727-10-10-10-5.52272727 0-10 4.47727273-10 10 0 .0193182.00113636.0375.00113636.0568182.03068182-5.49659093 4.49545455-9.94318184 9.99886364-9.94318184z" fill="#fff" fill-opacity=".2" mask="url(#i)"/><path d="m10 19.8863636c5.5034091 0 9.9681818-4.4465909 9.9988636-9.94318178 0 .01931818.0011364.0375.0011364.05681818 0 5.5227273-4.4772727 10-10 10-5.52272727 0-10-4.4772727-10-10 0-.01931818.00113636-.0375.00113636-.05681818.03068182 5.49659088 4.49545455 9.94318178 9.99886364 9.94318178z" fill="#3e2723" fill-opacity=".15" mask="url(#i)"/><circle cx="10" cy="10" fill="url(#h)" r="10"/></g></svg>