<?xml version="1.0" encoding="UTF-8"?>
<svg width="24px" height="24px" viewBox="0 0 24 24" version="1.1" xmlns="http://www.w3.org/2000/svg" xmlns:xlink="http://www.w3.org/1999/xlink">
    <title>Edge</title>
    <defs>
        <linearGradient x1="-5.60741916e-06%" y1="49.9999968%" x2="99.9999936%" y2="49.9999968%" id="linearGradient-1">
            <stop stop-color="#0C59A4" offset="0%"></stop>
            <stop stop-color="#114A8B" offset="100%"></stop>
        </linearGradient>
        <radialGradient cx="93.5609712%" cy="50.8658323%" fx="93.5609712%" fy="50.8658323%" r="82.4234834%" gradientTransform="translate(0.935610,0.508658),scale(0.862984,1.000000),rotate(175.919238),translate(-0.935610,-0.508658)" id="radialGradient-2">
            <stop stop-color="#000000" stop-opacity="0" offset="0%"></stop>
            <stop stop-color="#000000" stop-opacity="0.53" offset="46.0004569%"></stop>
            <stop stop-color="#000000" offset="100%"></stop>
        </radialGradient>
        <linearGradient x1="76.6896363%" y1="24.818102%" x2="33.2715108%" y2="83.1757523%" id="linearGradient-3">
            <stop stop-color="#1B9DE2" offset="0%"></stop>
            <stop stop-color="#1595DF" offset="16.164%"></stop>
            <stop stop-color="#0680D7" offset="66.749%"></stop>
            <stop stop-color="#0078D4" offset="100%"></stop>
        </linearGradient>
        <radialGradient cx="46.984173%" cy="43.095273%" fx="46.984173%" fy="43.095273%" r="102.386366%" gradientTransform="translate(0.469842,0.430953),scale(1.000000,0.810392),rotate(90.378400),translate(-0.469842,-0.430953)" id="radialGradient-4">
            <stop stop-color="#000000" stop-opacity="0" offset="0%"></stop>
            <stop stop-color="#000000" stop-opacity="0.5" offset="35.4312143%"></stop>
            <stop stop-color="#000000" offset="100%"></stop>
        </radialGradient>
        <radialGradient cx="9.85498403%" cy="27.4531651%" fx="9.85498403%" fy="27.4531651%" r="151.447763%" gradientTransform="translate(0.098550,0.274532),scale(0.665999,1.000000),rotate(24.115768),translate(-0.098550,-0.274532)" id="radialGradient-5">
            <stop stop-color="#35C1F1" offset="0%"></stop>
            <stop stop-color="#34C1ED" offset="11.079%"></stop>
            <stop stop-color="#2FC2DF" offset="23.164%"></stop>
            <stop stop-color="#2BC3D2" offset="31.446%"></stop>
            <stop stop-color="#36C752" offset="100%"></stop>
        </radialGradient>
        <radialGradient cx="100%" cy="57.2319276%" fx="100%" fy="57.2319276%" r="57.0923688%" gradientTransform="translate(1.000000,0.572319),scale(0.665999,1.000000),rotate(73.674707),translate(-1.000000,-0.572319)" id="radialGradient-6">
            <stop stop-color="#66EB6E" offset="0%"></stop>
            <stop stop-color="#66EB6E" stop-opacity="0" offset="100%"></stop>
        </radialGradient>
    </defs>
    <g id="Edge" stroke="none" stroke-width="1" fill="none" fill-rule="evenodd">
        <g id="Microsoft-edge-logo-hjSAdsD" transform="translate(2.000000, 2.000000)" fill-rule="nonzero">
            <path d="M18.0508305,14.8854555 C17.7879313,15.0232914 17.5132859,15.1465586 17.2279227,15.2537539 C16.3700008,15.5760266 15.4225656,15.7587234 14.4232453,15.7587234 C10.7262898,15.7587234 7.50581172,13.2155875 7.50581172,9.95229141 C7.50581172,9.03467187 8.03668984,8.23930703 8.78903203,7.82034453 C5.44567031,7.96051484 4.58618594,11.4453562 4.58618594,13.4868055 C4.58618594,19.2581078 9.90566172,19.8438125 11.0518523,19.8438125 C11.6695578,19.8438125 12.6018953,19.6639039 13.1636367,19.4876852 C13.1978703,19.4762945 13.231957,19.4648062 13.2660422,19.4530617 C15.4347273,18.7051414 17.2651109,17.2337648 18.468268,15.3265156 C18.6407984,15.0529555 18.3373656,14.7352156 18.0508305,14.8854555 L18.0508305,14.8854555 Z" id="Path" fill="url(#linearGradient-1)"></path>
            <path d="M18.0508305,14.8854555 C17.7879313,15.0232914 17.5132859,15.1465586 17.2279227,15.2537539 C16.3700008,15.5760266 15.4225656,15.7587234 14.4232453,15.7587234 C10.7262898,15.7587234 7.50581172,13.2155875 7.50581172,9.95229141 C7.50581172,9.03467187 8.03668984,8.23930703 8.78903203,7.82034453 C5.44567031,7.96051484 4.58618594,11.4453562 4.58618594,13.4868055 C4.58618594,19.2581078 9.90566172,19.8438125 11.0518523,19.8438125 C11.6695578,19.8438125 12.6018953,19.6639039 13.1636367,19.4876852 C13.1978703,19.4762945 13.231957,19.4648062 13.2660422,19.4530617 C15.4347273,18.7051414 17.2651109,17.2337648 18.468268,15.3265156 C18.6407984,15.0529555 18.3373656,14.7352156 18.0508305,14.8854555 L18.0508305,14.8854555 Z" id="Path" fill="url(#radialGradient-2)" opacity="0.35"></path>
            <path d="M8.25868047,18.8604438 C7.56380859,18.4297062 6.96060234,17.8617453 6.48248359,17.1904977 C5.74264297,16.1517617 5.30033672,14.8740406 5.30033672,13.4868055 C5.30033672,11.4453547 6.25092734,9.63719531 7.71621172,8.49156328 C8.04899766,8.23137734 8.47510313,7.96895156 8.78904141,7.82034141 C9.03283828,7.70493437 9.44976406,7.49711484 10.0035414,7.50496641 C10.9216273,7.51798203 11.6153281,7.9860375 12.010175,8.51764609 C12.3135594,8.92608828 12.5006547,9.42929141 12.5069117,9.97554219 C12.5071156,9.95911953 14.4181656,3.75645703 6.25306406,3.75645703 C2.82392734,3.75645703 0,7.01187969 0,9.86702422 C0,11.6781125 0.420260156,13.1240453 0.94645,14.2446125 C2.11837266,16.7406453 4.29160234,18.6725555 6.95002187,19.5237336 C7.91277031,19.8319914 8.93834219,20 10.0035414,20 C11.1082656,20 12.1700055,19.8182891 13.163632,19.4876859 C12.6018844,19.6639062 12.0063602,19.7603281 11.3886555,19.7603281 C10.2424742,19.7603289 9.17417188,19.4279203 8.25868047,18.8604437 L8.25868047,18.8604438 Z" id="Path" fill="url(#linearGradient-3)"></path>
            <path d="M6.48248359,17.1904977 C5.74264297,16.1517617 5.30033672,14.8740406 5.30033672,13.4868055 C5.30033672,11.4453547 6.25092734,9.63719531 7.71621172,8.49156328 C8.04899766,8.23137734 8.47510313,7.96895156 8.78904141,7.82034141 C9.03283828,7.70493437 9.44976406,7.49711484 10.0035414,7.50496641 C10.9216273,7.51798203 11.6153281,7.9860375 12.010175,8.51764609 C12.3135594,8.92608828 12.5006547,9.42929141 12.5069117,9.97554219 C12.5071156,9.95911953 14.4181656,3.75645703 6.25306406,3.75645703 C2.82392734,3.75645703 0,7.01187969 0,9.86702422 C0,11.6781125 0.420260156,13.1240453 0.94645,14.2446125 C2.11837266,16.7406453 4.29160234,18.6725555 6.95002187,19.5237336 C7.91277031,19.8319914 8.93834219,20 10.0035414,20 C11.1082656,20 12.1700055,19.8182891 13.163632,19.4876859 C12.6018844,19.6639062 12.0063602,19.7603281 11.3886555,19.7603281 C10.2424742,19.7603289 9.17417188,19.4279203 8.25868047,18.8604437 C7.56380859,18.4297062 6.96060234,17.8617453 6.48248359,17.1904977 Z" id="Path" fill="url(#radialGradient-4)" opacity="0.41"></path>
            <path d="M11.899557,11.6294922 C11.8362297,11.7114641 11.6414477,11.8246258 11.6414477,12.0719734 C11.6414477,12.2754359 11.7742945,12.471757 12.01035,12.6365031 C13.1338227,13.4205844 15.2514266,13.3149187 15.2570734,13.3148937 C16.1313094,13.311868 16.9177438,13.0714602 17.6221789,12.6596359 C17.9426555,12.4722305 18.2392727,12.249668 18.5066914,11.9955578 C19.4244719,11.123457 19.9840148,9.89445703 19.9995469,8.52894297 C20.0194641,6.77771641 19.3776711,5.61349062 19.1138648,5.09797344 C17.4581766,1.86218359 13.8842156,-2.22044605e-15 9.99827422,-2.22044605e-15 C4.52058672,-2.22044605e-15 0.0739664063,4.40203828 0.00046015625,9.8593875 C0.0375945313,7.00448359 2.87497188,4.69911094 6.24779609,4.69911094 C6.52126875,4.69911094 8.08075703,4.72578047 9.52946406,5.48610078 C10.8055844,6.15584297 11.4746391,6.96513125 11.9396469,7.76795469 C12.422468,8.60153672 12.5083586,9.65436562 12.5083586,10.0741211 C12.5083586,10.4938766 12.2967438,11.1153734 11.899557,11.6294922 L11.899557,11.6294922 Z" id="Path" fill="url(#radialGradient-5)"></path>
            <path d="M11.899557,11.6294922 C11.8362297,11.7114641 11.6414477,11.8246258 11.6414477,12.0719734 C11.6414477,12.2754359 11.7742945,12.471757 12.01035,12.6365031 C13.1338227,13.4205844 15.2514266,13.3149187 15.2570734,13.3148937 C16.1313094,13.311868 16.9177438,13.0714602 17.6221789,12.6596359 C17.9426555,12.4722305 18.2392727,12.249668 18.5066914,11.9955578 C19.4244719,11.123457 19.9840148,9.89445703 19.9995469,8.52894297 C20.0194641,6.77771641 19.3776711,5.61349062 19.1138648,5.09797344 C17.4581766,1.86218359 13.8842156,-2.22044605e-15 9.99827422,-2.22044605e-15 C4.52058672,-2.22044605e-15 0.0739664063,4.40203828 0.00046015625,9.8593875 C0.0375945313,7.00448359 2.87497188,4.69911094 6.24779609,4.69911094 C6.52126875,4.69911094 8.08075703,4.72578047 9.52946406,5.48610078 C10.8055844,6.15584297 11.4746391,6.96513125 11.9396469,7.76795469 C12.422468,8.60153672 12.5083586,9.65436562 12.5083586,10.0741211 C12.5083586,10.4938766 12.2967438,11.1153734 11.899557,11.6294922 L11.899557,11.6294922 Z" id="Path" fill="url(#radialGradient-6)"></path>
        </g>
    </g>
</svg>