<svg height="60" viewBox="0 0 180 60" width="180" xmlns="http://www.w3.org/2000/svg"><g fill="#fffffe" fill-rule="evenodd" transform="translate(15 22)"><path d="m11.995254.58126561v2.0878851c0 .13613655-.0907994.22693588-.2269359.22693588h-8.9641549v4.26656953h7.3983347c.1361366 0 .2269359.09067444.2269359.22681099v2.08800999c0 .13613656-.0907993.22681099-.2269359.22681099h-7.3983347v6.30899251c0 .1362614-.09067444.2269359-.22693589.2269359h-2.24675271c-.13613655 0-.22681099-.0906745-.22681099-.2269359v-15.43201499c0-.13613655.09067444-.22693588.22681099-.22693588h11.4378435c.1361365 0 .2269359.09079933.2269359.22693588"/><path d="m25.5318485 9.52268943c-.8281849-2.29208993-1.747294-4.58417985-2.689259-6.67206495h-.5331807c-.9418401 2.0878851-1.8723147 4.37997502-2.7007493 6.67206495zm4.7545378 6.71752707h-2.4736885c-.1361366 0-.2269359-.0681932-.2609076-.2043297-.3292257-1.3049126-.7261449-2.6778935-1.1801416-4.0622398h-7.5912989c-.4537469 1.3843463-.8509159 2.7573272-1.1686511 4.0622398-.0339717.1361365-.1248959.2043297-.2610325.2043297h-2.3827644c-.1588676 0-.2497918-.0906745-.2043297-.249667 1.4296836-5.0606577 3.608368-10.64363027 5.8096586-15.34121561.1021649-.21557036.2270608-.29500416.4426312-.29500416h3.2224396c.2155704 0 .3404663.0794338.4426312.29500416 2.2240216 4.68634471 4.3686094 10.28055791 5.8096586 15.34121561.0454621.1589925-.0453372.249667-.2042049.249667z"/><path d="m34.3481266 8.43347211c0-4.92477103 3.2451707-8.37414655 7.8749375-8.37414655h.3402165c2.9049542 0 5.1517069 1.47502082 6.3430891 3.60824313.0794338.13626145.0567027.24966695-.0794338.31786012l-1.9969609.98705246c-.1362614.06806827-.3066195.06806827-.3972939-.10203997-.8396753-1.45241466-2.0991257-2.22402165-3.9600749-2.22402165h-.3404663c-2.91607 0-4.9246461 2.31482098-4.9246461 5.67364696 0 3.37006659 1.9744796 5.62805999 4.9246461 5.62805999h.3404663c1.9064113 0 3.0182348-.646836 3.8694005-1.6340134.1134055-.1248959.2383014-.147502.3744379-.0794338l2.0537885.9985429c.0794338.0453372.1134055.10204.1134055.1588676 0 .0567028-.022731.1021649-.0679433.1701083-1.2595754 1.838343-3.5289343 2.9730224-6.297627 2.9730224h-.3404663c-4.7089509 0-7.8294754-3.23393-7.8294754-8.10174849"/><path d="m66.9818068 13.9253955v2.0878851c0 .1362614-.0909242.2269359-.2270608.2269359h-11.9144462c-.1361366 0-.226811-.0906745-.226811-.2269359v-15.43201499c0-.13613655.0906744-.22693588.226811-.22693588h11.7102414c.1362615 0 .2269359.09079933.2269359.22693588v2.0878851c0 .13613655-.0906744.22693588-.2269359.22693588h-9.2365529v4.13018319h7.5117403c.1361365 0 .2270607.09092422.2270607.22706078v2.06515404c0 .13613655-.0909242.22693588-.2270607.22693588h-7.5117403v4.15303912h9.4407577c.1361366 0 .2270608.0907994.2270608.2269359"/><path d="m84.7281432 11.6445462c0-1.4750208-.9759367-2.14458783-3.1205245-2.14458783h-5.3445463v4.26656953h5.3445463c2.1786844 0 3.1205245-.6354704 3.1205245-2.1219817zm-3.880766-8.81652788h-4.5843048v4.26644463h4.5843048c2.0537885 0 2.9956286-.66956703 2.9956286-2.13322232 0-1.46390508-.9418401-2.13322231-2.9956286-2.13322231zm6.6494588 9.05495418c0 2.7799334-2.1333472 4.357244-5.9007078 4.357244h-7.8067444c-.1361365 0-.2268109-.0906745-.2268109-.2269359v-15.43201499c0-.13613655.0906744-.22693588.2268109-.22693588h7.1146961c3.6650708 0 5.6620317 1.45241465 5.6620317 4.10757701 0 1.74741882-.8848876 2.89358868-2.6777686 3.42676936 2.5190259.53330558 3.608493 2.04254788 3.608493 3.9942964z"/><path d="m100.761032 13.9481266c3.256037 0 5.310575-2.2353872 5.310575-5.65079105 0-3.41565362-2.054538-5.6509159-5.310575-5.6509159h-.340965c-3.2562868 0-5.3100753 2.23526228-5.3100753 5.6509159 0 3.41540385 2.0537885 5.65079105 5.3100753 5.65079105zm-8.5104075-5.65079105c0-4.78863447 3.1772273-8.23800999 8.1694425-8.23800999h.340965c4.99209 0 8.169443 3.44937552 8.169443 8.23800999 0 4.78838465-3.177353 8.23788505-8.169443 8.23788505h-.340965c-4.9922152 0-8.1694425-3.4495004-8.1694425-8.23788505z"/><path d="m122.047044 13.9481266c3.257286 0 5.310575-2.2353872 5.310575-5.65079105 0-3.41565362-2.053289-5.6509159-5.310575-5.6509159h-.339717c-3.257285 0-5.310574 2.23526228-5.310574 5.6509159 0 3.41540385 2.053289 5.65079105 5.310574 5.65079105zm-8.510408-5.65079105c0-4.78863447 3.177352-8.23800999 8.170691-8.23800999h.339717c4.993339 0 8.170691 3.44937552 8.170691 8.23800999 0 4.78838465-3.177352 8.23788505-8.170691 8.23788505h-.339717c-4.993339 0-8.170691-3.4495004-8.170691-8.23788505z"/><path d="m149.790175 16.2402165h-2.927561c-.192339 0-.272273-.0454621-.397169-.1929642-2.053288-2.416861-4.481265-4.8223564-6.547044-6.59263115h-1.316403v6.55865945c0 .1362614-.091174.2269359-.22731.2269359h-2.246878c-.136136 0-.226061-.0906745-.226061-.2269359v-15.43201499c0-.13613655.089925-.22693588.226061-.22693588h2.246878c.136136 0 .22731.09079933.22731.22693588v6.26365529h1.338885c2.213155-1.99721066 4.255204-4.15303913 5.923813-6.32048293.112406-.14750208.20358-.17010824.339717-.17010824h2.768943c.136136 0 .204829.06806827.204829.15886761 0 .04533722-.02373.10203996-.079934.17010824-2.439217 3.00699417-4.857202 5.46931723-7.09159 7.37560366 2.813905 2.38276436 5.480433 5.03805166 7.90841 7.89754376.124896.147502.057452.2837635-.124896.2837635"/></g></svg>