<svg height="24" viewBox="0 0 24 24" width="24" xmlns="http://www.w3.org/2000/svg" xmlns:xlink="http://www.w3.org/1999/xlink"><radialGradient id="a" cx="86.849664%" cy="30.0273%" gradientTransform="matrix(1 0 0 .362882 0 .191309)" r="241.261868%"><stop offset=".045" stop-color="#ffea00"/><stop offset=".12" stop-color="#ffde00"/><stop offset=".254" stop-color="#ffbf00"/><stop offset=".429" stop-color="#ff8e00"/><stop offset=".769" stop-color="#ff272d"/><stop offset=".872" stop-color="#e0255a"/><stop offset=".953" stop-color="#cc2477"/><stop offset="1" stop-color="#c42482"/></radialGradient><radialGradient id="b" cx="70.827583%" cy="12.392756%" gradientTransform="matrix(1 0 0 .994695 0 .000657)" r="112.62957%"><stop offset="0" stop-color="#00ccda"/><stop offset=".22" stop-color="#0083ff"/><stop offset=".261" stop-color="#007af9"/><stop offset=".33" stop-color="#0060e8"/><stop offset=".333" stop-color="#005fe7"/><stop offset=".438" stop-color="#2639ad"/><stop offset=".522" stop-color="#401e84"/><stop offset="1" stop-color="#4a1475"/></radialGradient><linearGradient id="c" x1="56.517741%" x2="36.808642%" y1="75.219836%" y2="6.805114%"><stop offset="0" stop-color="#000f43" stop-opacity=".4"/><stop offset=".485" stop-color="#001962" stop-opacity=".173"/><stop offset="1" stop-color="#002079" stop-opacity="0"/></linearGradient><radialGradient id="d" cx="147.72731%" cy="-21.66384%" gradientTransform="matrix(.923323 0 0 1 .113273 0)" r="140.235548%"><stop offset=".003" stop-color="#ffea00"/><stop offset=".497" stop-color="#ff272d"/><stop offset="1" stop-color="#c42482"/></radialGradient><radialGradient id="e" cx="135.976%" cy="-52.130746%" gradientTransform="matrix(1 0 0 .541483 0 -.239028)" r="370.47035%"><stop offset=".003" stop-color="#ffe900"/><stop offset=".157" stop-color="#ffaf0e"/><stop offset=".316" stop-color="#ff7a1b"/><stop offset=".472" stop-color="#ff4e26"/><stop offset=".621" stop-color="#ff2c2e"/><stop offset=".762" stop-color="#ff1434"/><stop offset=".892" stop-color="#ff0538"/><stop offset="1" stop-color="#ff0039"/></radialGradient><radialGradient id="f" cx="211.883445%" cy="2.144945%" gradientTransform="matrix(.53347 0 0 1 .9885 0)" r="308.147708%"><stop offset=".003" stop-color="#ff272d"/><stop offset=".497" stop-color="#c42482"/><stop offset=".986" stop-color="#620700"/></radialGradient><radialGradient id="g" cx="62.79465%" cy="45.710582%" gradientTransform="matrix(1 0 0 .95947 0 .018527)" r="70.890499%"><stop offset="0" stop-color="#ffea00"/><stop offset=".231" stop-color="#ffde00"/><stop offset=".365" stop-color="#ffbf00"/><stop offset=".541" stop-color="#ff8e00"/><stop offset=".763" stop-color="#ff272d"/><stop offset=".796" stop-color="#f92433"/><stop offset=".841" stop-color="#e91c45"/><stop offset=".893" stop-color="#cf0e62"/><stop offset="1" stop-color="#b5007f"/></radialGradient><radialGradient id="h" cx="24.953418%" cy=".138232%" gradientTransform="matrix(1 0 0 .396485 0 .000834)" r="249.815176%"><stop offset=".279" stop-color="#ffea00"/><stop offset=".402" stop-color="#fd0"/><stop offset=".63" stop-color="#ffba00"/><stop offset=".856" stop-color="#ff9100"/><stop offset=".933" stop-color="#ff6711"/><stop offset=".994" stop-color="#ff4a1d"/></radialGradient><linearGradient id="i" x1="-82.255548%" x2="121.169039%" y1="64.455333%" y2="29.665906%"><stop offset="0" stop-color="#c42482" stop-opacity=".5"/><stop offset=".474" stop-color="#ff272d" stop-opacity=".5"/><stop offset=".486" stop-color="#ff2c2c" stop-opacity=".513"/><stop offset=".675" stop-color="#ff7a1a" stop-opacity=".72"/><stop offset=".829" stop-color="#ffb20d" stop-opacity=".871"/><stop offset=".942" stop-color="#ffd605" stop-opacity=".964"/><stop offset="1" stop-color="#ffe302"/></linearGradient><linearGradient id="j" x1="52.948151%" x2="36.156761%" y1="94.892989%" y2="5.477759%"><stop offset="0" stop-color="#891551" stop-opacity=".6"/><stop offset="1" stop-color="#c42482" stop-opacity="0"/></linearGradient><linearGradient id="k" x1="27.001161%" x2="48.856905%" y1="6.686413%" y2="47.886061%"><stop offset=".005" stop-color="#891551" stop-opacity=".5"/><stop offset=".484" stop-color="#ff272d" stop-opacity=".5"/><stop offset="1" stop-color="#ff272d" stop-opacity="0"/></linearGradient><linearGradient id="l" x1="47.509014%" x2="50.008615%" y1="56.361967%" y2="47.795682%"><stop offset="0" stop-color="#c42482"/><stop offset=".083" stop-color="#c42482" stop-opacity=".81"/><stop offset=".206" stop-color="#c42482" stop-opacity=".565"/><stop offset=".328" stop-color="#c42482" stop-opacity=".362"/><stop offset=".447" stop-color="#c42482" stop-opacity=".204"/><stop offset=".562" stop-color="#c42482" stop-opacity=".091"/><stop offset=".673" stop-color="#c42482" stop-opacity=".023"/><stop offset=".773" stop-color="#c42482" stop-opacity="0"/></linearGradient><linearGradient id="m" x1="40.898946%" x2="58.827065%" y1="1.647082%" y2="89.460857%"><stop offset="0" stop-color="#fff14f"/><stop offset=".268" stop-color="#ffee4c"/><stop offset=".452" stop-color="#ffe643"/><stop offset=".612" stop-color="#ffd834"/><stop offset=".757" stop-color="#ffc41e"/><stop offset=".892" stop-color="#ffab02"/><stop offset=".902" stop-color="#ffa900"/><stop offset=".949" stop-color="#ffa000"/><stop offset="1" stop-color="#ff9100"/></linearGradient><linearGradient id="n" x1="70.04206%" x2="43.32703%" y1="7.158606%" y2="81.947862%"><stop offset="0" stop-color="#ff8e00"/><stop offset=".04" stop-color="#ff8e00" stop-opacity=".858"/><stop offset=".084" stop-color="#ff8e00" stop-opacity=".729"/><stop offset=".13" stop-color="#ff8e00" stop-opacity=".628"/><stop offset=".178" stop-color="#ff8e00" stop-opacity=".557"/><stop offset=".227" stop-color="#ff8e00" stop-opacity=".514"/><stop offset=".282" stop-color="#ff8e00" stop-opacity=".5"/><stop offset=".389" stop-color="#ff8e00" stop-opacity=".478"/><stop offset=".524" stop-color="#ff8e00" stop-opacity=".416"/><stop offset=".676" stop-color="#ff8e00" stop-opacity=".314"/><stop offset=".838" stop-color="#ff8e00" stop-opacity=".172"/><stop offset="1" stop-color="#ff8e00" stop-opacity="0"/></linearGradient><g fill="none"><path d="m17.9561991 3.86093496c-.4867276.56674797-.7134146 1.8422561-.219878 3.13528455.4935366 1.29302846 1.25 1.01219512 1.7215447 2.33075203.6224187 1.73983736.3327033 4.07701216.3327033 4.07701216s.748252 2.1668496 1.2696748-.134817c1.154126-4.32323174-3.1040448-8.34361792-3.1040448-9.40823174z" fill="url(#a)"/><path d="m12.0169105 21.8097154c4.9844716 0 9.0223577-4.0597357 9.0223577-9.0656097 0-5.00587399-4.0378861-9.06558944-9.0175203-9.06558944-4.97963413 0-9.01749691 4.05973577-9.01749691 9.06558944-.00963722 5.0107114 4.03300506 9.0656097 9.01265951 9.0656097z" fill="url(#b)"/><path d="m18.7771341 18.334065c-.1950361.1375955-.399641.2611001-.6122561.3695732.281649-.4126816.54149-.8398318.7784553-1.2796951.1922764-.2128049.3684146-.4196748.5119512-.6433537.0698577-.1098983.1486382-.2455081.2320325-.4028252.5065244-.9126016 1.0650407-2.3894918 1.080874-3.906504v-.0036586c.0004276-.0373374.0004276-.0746951.0004276-.1120935.0024784-.3807946-.0364511-.7607387-.1162406-1.1330894.004065.0290854.0076423.0581504.0113008.0872154-.0044919-.0223577-.0082723-.0449593-.0130894-.0673577.007439.0413415.0134146.0813008.0198374.1216057.1035366.8783943.0297967 1.7352033-.3390651 2.3668699-.005813.0092277-.0117886.0178659-.0176626.0268903.1912602-.9600407.2552439-2.020061.0424391-3.0813008 0 0-.0851017-.5159147-.7190244-2.08213418-.3648781-.90148374-1.0128659-1.64056911-1.5853659-2.17900407-.5018292-.62085366-.9576016-1.0375-1.2088414-1.30203252-.5248171-.55262195-.7447765-.96684959-.8351017-1.23713414-.078313-.0392683-1.0799796-1.0123374-1.1595528-1.04941057-.4372155.67788618-1.8122358 2.79827235-1.1581504 4.77939024.2964227.89780488 1.0460772 1.82961382 1.8306301 2.35235772.0344512.0393496.4668496.50898372.6724796 1.56823172.2123171 1.0943496.1006911 1.9482723-.3363008 3.2110366-.5139431 1.1078252-1.8306301 2.2030081-3.0634959 2.3150406-2.6356911.2394512-3.60058944-1.3233333-3.60058944-1.3233333.94178864.3765244 1.98308944.2977642 2.61634144-.0926016.6382114-.3948171 1.0242683-.6875407 1.3376016-.5721139.3089431.1148984.5548781-.2186178.334187-.5643699-.3483971-.5366121-.9836468-.8132178-1.6138211-.7027032-.6388821.1038414-1.2241057.609939-2.06121951.1197967-.05417998-.0314399-.10662097-.0657854-.1570935-.1028862-.05518293-.0362804.17939024.0552236.12465447.0139838-.1629065-.088496-.45121951-.2813415-.52601626-.349939-.01245935-.0114228.12640244.0442886.11394309.0328455-.78272358-.6445529-.68495935-1.0799594-.66036585-1.3530488.01969512-.2184756.16186992-.498435.40144309-.6119919.11571138.0631504.18780488.1113618.18780488.1113618s-.0493496-.1008333-.07603659-.1539837c.00934959-.0040651.01829268-.0029878.02760163-.0069512.09479674.045752.30441056.1646341.41477642.2371341.14373984.1013821.18955284.1917886.18955284.1917886s.03784553-.0208333.00985773-.1092479c-.0101626-.0362602-.05380082-.1514838-.19617886-.2677643l.00890243.000996c.08521707.0485555.16593623.1046106.24119919.1675.04014228-.1459553.1123374-.2983537.0964634-.5709756-.00969511-.191687-.0052236-.2413212-.03900405-.3153456-.0302439-.0635772.01695122-.088374.06947155-.0223577-.0089895-.0517266-.024053-.1022114-.04487805-.1504065l.00044715-.0049593c.0655488-.228374 1.3871545-.82237809 1.4833537-.89180899.1580586-.11183668.2905962-.25592938.3888617-.42276422.0735163-.11713415.1288009-.28146342.1422765-.53073171.0072154-.1797561-.0764025-.29947155-1.4127439-.43939025-.3654675-.03599593-.5798984-.300813-.701748-.54518292-.02223577-.05264228-.04489837-.10034553-.0675813-.14800813-.02165029-.05571977-.03903105-.1130056-.05199187-.17136179.21847561-.6275.58556907-1.15806911 1.12534557-1.55894309.0294105-.02678862-.1175204.00686992-.0881301-.0199187.0342886-.03126016.258252-.12148374.3005488-.14180894.0516666-.02439025-.2211789-.14024391-.4620326-.11203252-.2453048.02764227-.2973983.05691057-.428313.1124187.0543293-.05408537.2270935-.12497968.1865854-.1245122-.2644512.04054878-.59306911.19426829-.87398374.36837398-.00054736-.03031745.00523283-.06041597.01697154-.08837398-.13091463.05552846-.45243902.2802439-.54603658.47036585.00403361-.03644128.00583914-.0730948.0054065-.10975609-.09972949.08317543-.18970173.1773957-.26819106.28085366l-.00489837.00445121c-.75930894-.3058943-1.4275-.32569105-1.99294716-.18853658-.12369918-.12422764-.18412601-.03341463-.46558943-.65180894-.01912601-.03723578.0146748.03676829 0 0-.04630081-.1199187.02823171.16 0 0-.47325203.37341463-1.09593496.79660569-1.39483739 1.0953252-.00369919.01191057.34869918-.0995935 0 0-.12211383.03487805-.11382114.1073374-.13237805.76219512-.00447155.04965447-.00050813.10526423-.00453252.14995935-.23878049.30422764-.40140244.56184959-.46290651.69534553-.30880081.53211382-.64890244 1.36162602-.97857723 2.67380085.14541394-.3556716.32073054-.6983699.52406504-1.0244106-.27414634.6964837-.53916667 1.7902032-.59215447 3.4744919.06631766-.3475596.15135336-.6912849.25473577-1.0296748-.06472077 1.397348.17625007 2.7919892.70609756 4.0866057.18961382.4638414.50325203 1.1677845 1.0371748 1.9390243 1.6775 1.7650204 4.04359756 2.8638212 6.6636585 2.8638212 2.7352033 0 5.1913618-1.1967073 6.8791667-3.0970529z" fill="url(#c)"/><path d="m16.753252 19.6160163c3.3103658-.3833334 4.7757927-3.7947155 2.8939227-3.8617887-1.6998577-.0543292-4.4619308 4.042683-2.8939227 3.8617887z" fill="url(#d)"/><path d="m19.8855081 15.0573984c2.277561-1.3254878 1.6837195-4.1886179 1.6837195-4.1886179s-.8789837 1.0210975-1.4761179 2.6487805c-.5898577 1.6117683-1.5769106 2.3404065-.2076016 1.5398374z" fill="url(#e)"/><path d="m12.6551626 21.3102033c3.1753455 1.0132317 5.9044715-1.4882114 4.2222154-2.3235773-1.5294919-.753374-5.7293293 1.8444716-4.2222154 2.3235773z" fill="url(#f)"/><path d="m20.1221341 16.2730488c.0772358-.1090041.1817073-.4580285.2739837-.6140447.5606098-.9049391.5645732-1.6264838.5645732-1.6430082.3385976-1.6914431.3078862-2.3821138.0995935-3.6594105-.1677032-1.02845532-.9008537-2.50186995-1.5359756-3.21138215-.6544715-.73099593-.193374-.4928252-.8270732-1.02678862-.5554268-.61571138-1.0939634-1.22542683-1.3872561-1.47063008-2.1194309-1.77189024-2.0715447-2.14825203-2.0307317-2.2124187-.0068902.00754065-.0170122.01873984-.0299187.03339431-.0251016-.10006097-.0428252-.18420731-.0428252-.18420731s-1.1585366 1.15853658-1.402439 3.08943089c-.1592276 1.26058943.3126626 2.57471545.995935 3.41463415.355796.4352785.7578905.83055787 1.1991869 1.17886178v-.00052845c.5162602.74140248.8004065 1.65628048.8004065 2.64042678 0 2.464309-1.9988008 4.4620122-4.4644715 4.4620122-.3360393.0001742-.6710318-.037454-.9986585-.1121748-1.1633334-.2217073-1.83512198-.8085569-2.17016263-1.2069512-.1920122-.2283333-.27365854-.3947764-.27365854-.3947764 1.0423374.3733943 2.19483737.2952846 2.89569107-.0918293.7062805-.391565 1.1336179-.6818292 1.4804268-.567378.3418699.1139431.6140447-.216809.3699187-.5596748-.239248-.3423781-.8617886-.8327236-1.7861382-.6968699-.7070935.1029878-1.3548171.604878-2.28130081.1188008-.05966783-.0310023-.11769869-.0650583-.17386179-.1020325-.06107723-.035996.19853659.0547764.13794716.0138618-.18028456-.0877643-.49945122-.2790244-.5821748-.3470326-.01380081-.0113211.13989837.0439228.12601626.0325204-.86628049-.6392074-.75813008-1.070996-.73087398-1.3418293.02180894-.2166667.17914634-.494309.44428861-.6069106.12804878.062622.20784553.1104269.20784553.1104269s-.05463414-.1-.08416667-.1527033c.01034553-.0039431.02020326-.0029472.03048781-.0068902.1049187.0453658.33691057.163191.45906504.2351626.15908537.1005487.20979675.1902032.20979675.1902032s.04189024-.0206504.01089431-.1083333c-.01132114-.0359553-.05953252-.1502236-.21711382-.2655488l.00985772.0009959c.09354467.0476825.18285207.1032565.26695122.1661179.04443089-.1447358.12434959-.295874.10676829-.5662398-.01073171-.1900813-.00577236-.2393293-.04317073-.3127236-.03347561-.0630081.01878049-.0876423.07686992-.0221138-.01005343-.0516832-.02675024-.1018488-.0496748-.149248l.00050813-.0049187c.07256098-.2264837 1.53526425-.81554877 1.64172765-.88441056.1715572-.1076887.3182617-.25061735.4303862-.41930894.0813008-.11615854.1425609-.27912602.1574796-.52632114.005-.11138211-.0292886-.19953252-.4166666-.28384146-.2325-.05060976-.5921951-.09985772-1.1470122-.15191057-.4044716-.03569106-.64180896-.29829268-.77666668-.54065041-.02461382-.05221544-.04969512-.09959349-.07479675-.14678861-.02386177-.05494486-.04310844-.11178066-.05754065-.1699187.2420337-.63361852.67791508-1.17465938 1.24550818-1.54599594.0325203-.02658536-.1300813.00680894-.097561-.0197561.0379675-.03099593.2858333-.12046748.3326626-.14063008.0571748-.02410569-.2447968-.13902439-.5113618-.11109756-.2714838.0274187-.3291464.05642277-.4740447.11150407.0601422-.05363821.2513414-.12398374.2065244-.12347561-.29268296.04020325-.6565041.1926626-.96747971.36530488-.00056927-.03027023.00585779-.0602632.01878049-.08764228-.14489838.05506097-.50075204.27792683-.6043496.46646341.00445522-.03609642.00645169-.07245393.00597561-.10882113-.10911044.08131865-.20866075.1747323-.29674796.27845528l-.00542683.00443089c-.84038618-.30335365-1.5799187-.3229878-2.20573171-.18699187-.13691057-.12319105-.35703252-.30947154-.66853659-.92276422-.02115853-.0369309-.03252032.07632113-.04878048.03985772-.12103659-.28075203-.19416667-.74073171-.18215448-1.05784553 0 0-.25036585.11410569-.4575813.59065041-.03847561.08567073-.0631504.13292683-.08780487.18018292-.01134147.01378049.02571138-.15650406.01979674-.14723577-.03601626.06097561-.12918699.14617886-.17014227.25646342-.02813008.08172764-.0675813.1275-.09276423.22943089l-.00591463.00934959c-.00203253-.03004065.00745934-.12359756.00054878-.10441056-.09712674.196231-.18070957.39887929-.25016261.60652439-.11156504.36678861-.24144309.86605691-.26203252 1.51554878-.00495935.04924796-.00054878.10439024-.00502032.14871951-.26422764.30170732-.44426829.5571748-.5123374.68959349-.34160569.52786586-.71802846 1.35050813-1.08292683 2.65178859.16234734-.3554593.35648365-.695521.58004065-1.01603655-.30343496.69071135-.59674797 1.77536585-.65538618 3.44573175.07365505-.3456685.16780504-.68665.28195122-1.0211383-.05239837 1.1138212.0773374 2.4947155.78148374 4.0527033.41808943.9164024 1.38050813 2.7774187 3.73211382 4.2296748l-.00020325.0001423s.8.5955284 2.17514228 1.0418496c.10162601.0368699.20457317.0731707.30963414.1083943-.03296748-.013313-.06485772-.0273171-.09583333-.0417073.91530713.2742398 1.86563093.4139127 2.82113823.4146389 3.5605691.0030237 4.610691-1.4268341 4.610691-1.4268341s-.0036991.0027846-.0104268.0076626c.0502439-.0473035.0986382-.0964702.1451829-.1475-.5617683.5304878-1.8438008.5656911-2.3231707.5274187.8175407-.2401016 1.3555081-.4432113 2.4019309-.8438821.1224526-.0453929.2476694-.0971545.3756504-.1552845.0138415-.0060976.0278049-.0127033.0417073-.0190244.0253862-.0118293.0505285-.0230082.0761586-.0354472.5098385-.2402569.9892452-.5403859 1.4280894-.8940447 1.050813-.8394309 1.2794512-1.6576626 1.3989634-2.1971545-.0166667.0517074-.0685976.1722561-.1050813.2503252-.2706301.5789025-.870752.9341261-1.5225203 1.2387805.310148-.406938.5977609-.8305678.8615447-1.2689837.2127439-.2110366.279126-.5411586.4379878-.7629878z" fill="url(#g)"/><path d="m18.8431097 18.280122c.4284553-.4723781.8132114-1.012683 1.1046545-1.6253659.75-1.5768699 1.9095935-4.1987805.9963008-6.93711382-.721809-2.16428862-1.7128455-3.34772358-2.9711585-4.50378049-2.0435773-1.87735772-2.6143293-2.71546748-2.6143293-3.21386179 0 0-2.3595325 2.63026423-1.3362195 5.37359756 1.023313 2.74333334 3.1191057 2.64276424 4.5056707 5.50556914 1.6316057 3.3688008-1.3201016 7.045-3.7610569 8.0739431.1494512-.0331911 5.4262195-1.2272968 5.7035366-4.2455691-.0062805.0555081-.1251829.8903048-1.6273984 1.5725813z" fill="url(#h)"/><path d="m12.0071544 8.49132114c.0079878-.17825203-.0844715-.29796748-1.5585772-.43623984-.60648375-.05599593-.83871952-.61654471-.90951221-.85245935-.2156504.56026423-.30469512 1.14817073-.25682927 1.85928862.03272358.46585366.34571139.96587403.49532521 1.25945123 0 0 .03325203-.0432114.04859756-.059187.28172761-.29331301 1.46211381-.74022358 1.57300811-.80367887.1222358-.07721544.5874594-.41713414.6079878-.96717479z" fill="url(#i)"/><path d="m5.51776418 5.18030488c-.02115854-.03695122-.03252033.07630081-.04878049.03985772-.12103658-.28075203-.19467479-.73577236-.17723577-1.05735772 0 0-.25036585.11410569-.4575813.5906504-.03847561.08567074-.06315041.13292683-.08780488.18018293-.01134146.01378049.02571138-.15650406.01979675-.14723577-.03599594.06097561-.12916667.14617886-.16963415.25152439-.03355691.08615854-.0680691.1324187-.09376016.23926829-.0079065.02904472.00796748-.12851626.00105691-.10932927-.48193089.93140244-.57392276 2.33971545-.52313008 2.28016261 1.02597561-1.09552846 2.20172764-1.35534553 2.20172764-1.35534553-.12510162-.09215447-.39691057-.35823171-.66463414-.91237805z" fill="url(#j)"/><path d="m9.41065036 16.6361789c-1.41715447-.605061-3.02829268-1.458435-2.96747968-3.3971139.08282521-2.5532317 2.38099594-2.0485975 2.38099594-2.0485975-.08672764.0211179-.31859756.1862195-.40077236.3621951-.08684959.220061-.24530488.7169919.23477642 1.2378049.75384147.8169105-1.54878048 1.9381301 2.00534552 4.0562398.0896342.0487805-.83315039-.029065-1.25282519-.2105284z" fill="url(#k)"/><path d="m8.90719507 15.3638211c1.0049187.3497358 2.17560973.2883943 2.87648373-.0987398.4692073-.2611992 1.0711382-.6795528 1.4415041-.5762805-.3206708-.126748-.5635366-.1859756-.8556911-.2004471-.0497561 0-.1093902-.001057-.1635772-.0065041-.107004-.0003464-.2139381.0055103-.3202642.0175406-.1808944.0166261-.3814228.1307521-.5637196.1124391-.0098577-.000996.1768293-.0767073.1616464-.0732724-.0965854.0201423-.2015244.0244919-.3123984.0382317-.0704675.0078455-.1310772.0166667-.2010366.0195732-2.09313005.1775-3.86213412-1.1344106-3.86213412-1.1344106-.1505691.5071138.67410569 1.5101626 1.79920732 1.9018699z" fill="url(#l)"/><path d="m18.8393902 18.2936179c2.1171138-2.0786586 3.188252-4.6053862 2.7354268-7.4394106 0 0 .1808943 1.453252-.5050406 2.9395935.3295325-1.4510772.3678862-3.2543496-.507622-5.1217073-1.1685569-2.4925-3.0904065-3.80402439-3.824126-4.35117887-1.111687-.82904471-1.5725203-1.6731504-1.5808333-1.84733739-.3320935.68042683-1.3367073 3.01219512-.1079269 5.0203252 1.1512196 1.88138211 2.9647358 2.43981707 4.234309 4.16558946 2.3389228 3.1792683-.444187 6.634126-.444187 6.634126z" fill="url(#m)"/><path d="m18.5360569 12.8851829c-.7398781-1.5284756-1.6633334-2.1951422-2.53687-2.91770323.1016261.14227643.1266667.19254063.1829269.28455283.7688414.8194309 1.9025813 2.8182114 1.0794715 5.3273781-1.5493699 4.7230691-7.74680892 2.4989837-8.3965447 1.8742276.26284553 2.7335163 4.8381301 4.0415651 7.8170732 2.2689025 1.6951219-1.6046545 3.0664227-4.3325407 1.8539431-6.8373578z" fill="url(#n)"/></g></svg>