<?xml version="1.0" encoding="UTF-8"?>
<svg width="100px" height="60px" viewBox="0 0 100 60" version="1.1" xmlns="http://www.w3.org/2000/svg" xmlns:xlink="http://www.w3.org/1999/xlink">
    <!-- Generator: Sketch 63.1 (92452) - https://sketch.com -->
    <title>google</title>
    <desc>Created with Sketch.</desc>
    <g id="google" stroke="none" stroke-width="1" fill="none" fill-rule="evenodd">
        <g id="google_logo_2015" transform="translate(10.000000, 17.000000)" fill="#FFFFFF">
            <path d="M19.6821818,9.29987879 L10.2727273,9.29987879 L10.2727273,12.0681212 L16.9695354,12.0681212 C16.6427475,15.9498182 13.4131717,17.6052525 10.3647677,17.6052525 C6.46456566,17.6052525 3.06125253,14.5365657 3.06125253,10.2354747 C3.06125253,6.04557576 6.30553535,2.81874747 10.3733333,2.81874747 C13.5116768,2.81874747 15.3610505,4.81939394 15.3610505,4.81939394 L17.2992323,2.81228283 C17.2992323,2.81228283 14.8114747,0.0427474747 10.2742626,0.0427474747 C4.49656566,0.0427474747 0.0269090909,4.91894949 0.0269090909,10.1860202 C0.0269090909,15.3471515 4.23143434,20.379798 10.4214949,20.379798 C15.8657778,20.379798 19.8509899,16.6502626 19.8509899,11.1351919 C19.8509899,9.97163636 19.6820202,9.29915152 19.6820202,9.29915152 L19.6821818,9.29987879" id="Fill-1"></path>
            <path d="M27.6471919,7.29519192 C23.8193131,7.29519192 21.0761212,10.2877576 21.0761212,13.7779394 C21.0761212,17.3197576 23.7368889,20.3679192 27.6921212,20.3679192 C31.2726465,20.3679192 34.2060606,17.6312727 34.2060606,13.8540606 C34.2060606,9.52476768 30.7938586,7.29519192 27.6471919,7.29519192 Z M27.6852525,9.86262626 C29.567596,9.86262626 31.3513535,11.3844848 31.3513535,13.8367677 C31.3513535,16.2370101 29.5751919,17.8021818 27.6766061,17.8021818 C25.5904646,17.8021818 23.9447273,16.1313939 23.9447273,13.817697 C23.9447273,11.5536162 25.5700202,9.86262626 27.6852525,9.86262626 L27.6852525,9.86262626 Z" id="Fill-2"></path>
            <path d="M41.8573737,7.29519192 C38.0295758,7.29519192 35.2863838,10.2877576 35.2863838,13.7779394 C35.2863838,17.3197576 37.9471515,20.3679192 41.9023838,20.3679192 C45.4829091,20.3679192 48.4163232,17.6312727 48.4163232,13.8540606 C48.4163232,9.52476768 45.0041212,7.29519192 41.8573737,7.29519192 Z M41.8955152,9.86262626 C43.7778586,9.86262626 45.5616162,11.3844848 45.5616162,13.8367677 C45.5616162,16.2370101 43.7854545,17.8021818 41.8868687,17.8021818 C39.8007273,17.8021818 38.1549899,16.1313939 38.1549899,13.817697 C38.1549899,11.5536162 39.7802828,9.86262626 41.8955152,9.86262626 L41.8955152,9.86262626 Z" id="Fill-3"></path>
            <path d="M55.8748283,7.30206061 C52.3612929,7.30206061 49.599596,10.3793131 49.599596,13.8332121 C49.599596,17.767596 52.8013737,20.3765657 55.8142222,20.3765657 C57.6771717,20.3765657 58.6677172,19.6370909 59.3990303,18.7882828 L59.3990303,20.0771717 C59.3990303,22.3323636 58.0298182,23.6827475 55.9630707,23.6827475 C53.9664646,23.6827475 52.9650101,22.1982222 52.6169697,21.355798 L50.1048889,22.4059798 C50.9961212,24.2903434 52.7901414,26.2554343 55.9838384,26.2554343 C59.4771717,26.2554343 62.1396364,24.0551111 62.1396364,19.4404848 L62.1396364,7.53341414 L59.3991919,7.53341414 L59.3991919,8.80234343 C58.5564444,7.89422222 57.4041212,7.30206061 55.8748283,7.30206061 L55.8748283,7.30206061 Z M56.1291313,9.86432323 C57.8517172,9.86432323 59.6205253,11.3351919 59.6205253,13.8471111 C59.6205253,16.4002424 57.8554343,17.8073535 56.0909899,17.8073535 C54.2179394,17.8073535 52.4750707,16.2864646 52.4750707,13.8713535 C52.4750707,11.3618586 54.2851717,9.86432323 56.1290505,9.86432323 L56.1291313,9.86432323 L56.1291313,9.86432323 Z" id="Fill-4"></path>
            <path d="M74.0823434,7.28646465 C70.7681616,7.28646465 67.9854545,9.92331313 67.9854545,13.8142222 C67.9854545,17.9313131 71.0871111,20.3730101 74.4007273,20.3730101 C77.1662222,20.3730101 78.863596,18.8600404 79.8766061,17.5044848 L77.6170505,16.0010505 C77.0307071,16.9110303 76.0504242,17.800404 74.4145455,17.800404 C72.5769697,17.800404 71.7321212,16.794101 71.2086465,15.8193939 L79.9730909,12.1827071 L79.5180606,11.1169293 C78.6714343,9.02981818 76.6963232,7.28686869 74.0826667,7.28686869 L74.0823434,7.28646465 Z M74.1965253,9.80032323 C75.3907879,9.80032323 76.2502626,10.4352323 76.6152727,11.1965253 L70.7622626,13.6429091 C70.509899,11.7489293 72.3042424,9.80032323 74.1965253,9.80032323 L74.1965253,9.80032323 Z" id="Fill-5"></path>
            <polygon id="Fill-6" points="63.9686465 19.9849697 66.6532525 19.9849697 66.6532525 0.718707071 63.9686465 0.718707071"></polygon>
        </g>
    </g>
</svg>