<?xml version="1.0" encoding="UTF-8"?>
<svg width="60px" height="60px" viewBox="0 0 60 60" version="1.1" xmlns="http://www.w3.org/2000/svg" xmlns:xlink="http://www.w3.org/1999/xlink">
    <title>Mercedes</title>
    <g id="Mercedes" stroke="none" stroke-width="1" fill="none" fill-rule="evenodd">
        <g id="Mercedes-Benz_free_logo" transform="translate(12.000000, 12.000000)" fill="#FFFFFF">
            <path d="M26.3538805,2.04110526 C32.0849858,5.05515789 35.9999858,11.0643158 35.9999858,17.991 C35.9999858,24.9176842 32.0849858,30.9457895 26.3538805,33.9413684 L26.3538805,31.8817895 C28.5456174,30.5706316 30.3996174,28.7360526 31.74867,26.5646842 L26.3538805,24.3748421 L26.3538805,21.0424737 L32.2725647,25.6665789 C33.5088805,23.3824737 34.2018805,20.7800526 34.2018805,17.9905263 C34.2018805,12.1121053 31.0547226,6.94563158 26.3538805,4.09973684 L26.3538805,2.04110526 L26.3538805,2.04110526 Z M18.0189474,0.000473684211 C21.0159474,0.000473684211 23.8438279,0.730894737 26.3538805,2.04110526 L26.3538805,4.10068421 C24.0498805,2.71468421 21.3527368,1.89142105 18.5058947,1.79763158 L20.5659474,16.5311053 L26.3538805,21.0429474 L26.3538805,24.3753158 L17.9810526,20.9865789 L9.66457895,24.3937895 L9.66457895,21.0798947 L15.4899474,16.5306316 L17.5315263,1.79715789 C14.6467895,1.89094737 11.9685789,2.71468421 9.66457895,4.09973684 L9.66457895,2.04110526 C12.1561579,0.730894737 15.003,0.000473684211 18.0189474,0.000473684211 L18.0189474,0.000473684211 L18.0189474,0.000473684211 Z M26.3538805,33.9413684 C23.8438279,35.2515789 21.0154737,36 18.0189474,36 C15.0034737,36 12.1566316,35.2515789 9.66505263,33.9598421 L9.66505263,31.8817895 C12.1002632,33.3601579 14.9655789,34.2028421 18.0189474,34.2028421 C21.0533684,34.2028421 23.90067,33.3601579 26.3538805,31.8817895 L26.3538805,33.9413684 L26.3538805,33.9413684 Z M9.66505263,33.9598421 C3.91452632,30.9457895 0,24.9176842 0,17.991 C0,11.0643158 3.91452632,5.05515789 9.66505263,2.04110526 L9.66505263,4.10068421 C4.94478947,6.94610526 1.79810526,12.0941053 1.79810526,17.991 C1.79810526,20.7800526 2.51005263,23.4203684 3.74636842,25.704 L9.66505263,21.0798947 L9.66505263,24.3937895 L4.28921053,26.6021053 C5.63778947,28.7559474 7.47331579,30.5711053 9.66505263,31.8817895 L9.66505263,33.9598421 L9.66505263,33.9598421 Z" id="path3524"></path>
        </g>
    </g>
</svg>