<?xml version="1.0" encoding="UTF-8"?>
<svg width="100px" height="60px" viewBox="0 0 100 60" version="1.1" xmlns="http://www.w3.org/2000/svg" xmlns:xlink="http://www.w3.org/1999/xlink">
    <title>Nike</title>
    <g id="Nike" stroke="none" stroke-width="1" fill="none" fill-rule="evenodd">
        <path d="M26.7705584,40.3094416 C24.9918782,40.2387817 23.5366497,39.7520812 22.3987817,38.8481218 C22.1816244,38.6754315 21.6641624,38.157665 21.4905584,37.9392893 C21.0291371,37.3590863 20.7154315,36.7944162 20.5061929,36.1679188 C19.862335,34.2393909 20.1937056,31.708731 21.4540102,28.9313706 C22.5330964,26.5536041 24.1981726,24.1953299 27.1031472,20.9291371 C27.531066,20.4485279 28.8053807,19.0429442 28.8136041,19.0429442 C28.8166497,19.0429442 28.7472081,19.1632487 28.659797,19.3097462 C27.904467,20.5749239 27.2581726,22.0651777 26.9060914,23.3553299 C26.3405076,25.4254822 26.408731,27.2020305 27.1058883,28.5795939 C27.586802,29.5286294 28.411269,30.3506599 29.3383756,30.8050761 C30.9614213,31.6003046 33.337665,31.6660914 36.2395939,30.9975635 C36.4393909,30.951269 46.3396954,28.3231472 58.2404061,25.1571574 C70.1411168,21.9908629 79.8796954,19.402335 79.8812183,19.404467 C79.8845685,19.4072081 52.2324873,31.2396954 37.877868,37.3782741 C35.6045685,38.3501523 34.9966497,38.5956345 33.9279188,38.9708629 C31.1959391,39.9302538 28.748731,40.3880203 26.7705584,40.3094416 Z" id="Path" fill="#FFFFFF" fill-rule="nonzero"></path>
    </g>
</svg>