<svg height="60" viewBox="0 0 100 60" width="100" xmlns="http://www.w3.org/2000/svg"><g fill="#fff" transform="translate(20 15)"><path d="m59.9683099.0033397-29.6632098 29.6632098h-30.3051001v-29.6632098zm-51.79940523 5.26203033h-.0133588c-2.51212187 0-4.60544544.81889429-5.90392055 2.15944962-.90238677.93778758-1.39065082 2.1240488-1.41269284 3.44456595-.03339699 1.8087812.63253906 3.0925616 2.02652958 4.1191852 1.17958182.8643142 2.68445036 1.4207081 4.01365071 1.8375026 1.63979239.5056305 2.9783439.9471387 2.96298129 1.888266-.0133588.3426532-.14093532.6639322-.38874101.9177494-.40811126.4241418-1.03530681.5811077-1.9029607.6004779-1.67252145.033397-2.9128858-.2270995-4.88865195-1.3946584l-1.82280792 3.6222379c1.96975469 1.1214711 4.3015328 1.777388 6.68140257 1.777388h.30792028c2.07061362-.0400764 3.74313507-.6312031 5.07968277-1.7052505l.2164125-.1890269-.5904588 1.5870251h5.3602174l.900383-2.7378856c.9417952.3186074 2.0145067.4976153 3.1500044.4976153 1.1081123 0 2.1534382-.166985 3.0785349-.4715656l.8656501 2.7118359h8.7460047v-5.6708095h1.9083043c4.6087851 0 7.3379874-2.3458049 7.3379874-6.2826425 0-4.38168558-2.6503854-6.39151667-8.2931415-6.39151667l.000668-.00601146h-5.9025847v14.03542063l-5.1564958-14.03542063h-5.111076l-4.4057314 11.73436773c-.4655541-2.9576378-3.5293943-3.9815896-5.93798546-4.7450449-1.58769308-.510974-3.27758097-1.2617384-3.26221835-2.0933235.0133588-.67996284.90773029-1.31049808 2.6717595-1.21631855 1.18893298.06011458 2.23759861.15629793 4.31956721 1.16288335l2.0505754-3.57214248c-1.899621-.97051664-4.5319721-1.57967781-6.68541023-1.58435339zm13.79563013 6.08827197 1.833495 5.920619c-.5523863.1977102-1.1809177.3192753-1.8528652.3192753h-.0020038c-.6879781 0-1.333208-.1255727-1.8909378-.3353058l1.8722355-5.9045885zm13.9686266-1.91231187c1.7353078 0 3.1166075.57175657 3.1166075 2.34647277 0 1.832827-1.3812997 2.4072553-3.1166075 2.4072553h-1.2998109v-4.75372807z"/><path d="m38.3857031 26.6341025v2.2125508h.3339699v-.9601635h.3756494l.6053539.9601635h.3757162l-.6471002-.9601635c.3233497-.0400764.5844474-.2281015.5844474-.6261937 0-.4361647-.2669087-.6261936-.7931118-.6261936zm.3339699.2922237h.4591419c.2258305 0 .4801152.0367367.4801152.3130634 0 .3453917-.2574909.375783-.5427012.375783h-.3965559zm.4174624-1.1063088c-1.0593526 0-1.9621401.8162893-1.9621401 1.9203271 0 1.1121199.9027207 1.9412337 1.9621401 1.9412337 1.044658 0 1.9203272-.8289802 1.9203272-1.9412337 0-1.1040378-.8756692-1.9203271-1.9203272-1.9203271zm0 .3131302c.8642474 0 1.5445442.6981976 1.5445442 1.6071969 0 .9245624-.6802968 1.6072638-1.5445442 1.6072638-.8790756 0-1.5863572-.6827014-1.5863572-1.6072638 0-.9089993.7072816-1.6071969 1.5863572-1.6071969z"/></g></svg>