<svg height="60" viewBox="0 0 180 60" width="180" xmlns="http://www.w3.org/2000/svg"><g fill="#fff" transform="translate(15 19)"><path d="m0 0v7.31405118h29.7028628v-7.31405118zm0 14.5722697v7.3140519h29.7028628v-7.3140519z"/><path d="m45.894273 0c-2.3159275 0-3.9038033.56502434-4.969087 1.39581135-1.2528803.95361803-1.7866386 2.24223107-1.7866386 3.51744412 0 1.09878292.3595614 2.07696704.8933197 2.84745519.8598192 1.21714763 3.3253798 2.54149334 5.136585 3.46161254 1.7196391.8598199 3.3477128 1.5543754 4.2990981 2.6799562.6230908.7392206.9491517 1.4940782.9491517 2.6799583 0 1.3355118-.589591 2.3561282-1.5074751 3.0707836-.9223522.7146569-2.208733 1.1166505-3.5732766 1.1166505-3.1444848 0-4.7993587-.9290509-5.7507426-4.5782616l-1.0608178.2791628c.3885946 1.3042457.7347555 2.5705244 1.0049844 4.4107642 1.7174076.6230893 3.8055398 1.0049844 5.5274125 1.0049844 2.641992 0 4.6184602-.7727233 5.8624081-1.8983034 1.1278144-1.0094509 1.6749718-2.3650649 1.6749718-3.9082713 0-1.4538775-.6610557-2.8050227-1.284145-3.5174452-1.277447-1.4538782-2.9881522-2.1640664-5.3040832-3.34994791-1.8692694-.94915095-3.0283514-1.60350711-3.7966052-2.34496279-.5627908-.5337583-1.0049844-1.51417536-1.0049844-2.34496266 0-.92011877.3483931-1.69507301 1.0608164-2.28913038.8307874-.7079555 2.0345346-1.11664912 3.5174445-1.11664912 3.5040448 0 4.1226668 1.07644983 4.7457555 4.13160163l1.0608177-.27916244c-.2679938-1.33774549-.5494805-2.91445386-.7258208-4.1316012-1.516409-.58959072-3.0685514-.83748683-4.9690891-.83748683zm42.4326654.39082713v.89331932c2.2221256 0 2.4007891.15186369 2.4007891 2.28913045v14.7955973c0 2.1060021-.1786635 2.2332995-2.4007891 2.2332995v.8374863h9.6590118c3.0864168 0 4.8172248-.7168884 5.9740668-1.8424707 1.185888-1.1278144 1.674981-2.5928573 1.674981-4.0757673 0-1.6325417-.828555-2.8005583-1.898304-3.6291099-1.275213-.9826507-2.981459-1.5030085-4.9132532-1.56331v-.0557346c1.8692632-.2679959 3.1310762-.87545257 4.0199292-1.67497319 1.098789-.98041848 1.451637-2.28019763 1.451637-3.40577986 0-1.51417592-.770481-2.68889061-1.898303-3.4616117-1.6035-1.07198957-3.3566376-1.34007562-6.0857206-1.34007562zm-12.3389787.50249197c-1.3087109 0-2.3069929.49132564-3.0149431 1.1724814-.9804242 1.00945087-1.4516446 2.37846256-1.4516446 4.18743362v1.84247133h-2.1774668v.94915095h2.1774668v9.6590147c0 1.8134367-.1563341 2.0099673-2.2333009 2.0099673v.7258216h6.6440545v-.7258216c-2.2265901 0-2.344955-.1718744-2.344955-1.9541339v-9.7148481h3.7407725v-.94915095h-3.7407725v-1.73080592c0-2.10823351.3550948-3.19808304.9491517-3.90827169.4131611-.44665969.8575805-.66998936 1.4516374-.66998936.9201185 0 1.2930853.62979 1.6191469 1.28414631.3282939.65435644.6320261 1.2841463 1.3399763 1.2841463.5382228 0 .8374906-.29702858.8374906-.89331917 0-.53375822-.4243294-1.27744656-1.2841493-1.8424709-.5985214-.38636055-1.2975427-.72582192-2.5124645-.72582192zm63.3139973 0c-1.096549.68115597-2.119386 1.01838391-3.57327 1.22831396v.61415708c1.603507 0 1.786642.23449614 1.786642 1.95413567v14.06977869c0 1.7196377-.064763 1.9541339-1.786642 1.9541339v.7258216h5.527422v-.7258216c-1.63254 0-1.674974-.2344962-1.674974-1.9541339v-3.1266185l1.619133-1.6749725 4.857419 7.4815465h3.405775v-.7258216c-.888846.0291185-1.578938-.0759455-2.233294-1.1166491l-4.522429-6.867391 3.126619-3.01495162c.681163-.65435616 1.152384-.86437535 2.009971-.89331967v-.72582156h-4.410767v.72582156c1.427083 0 1.246187.48685948.446665 1.22831519l-4.243279 4.1316007h-.055664v-13.12062634l-.27917-.16749746zm-45.5034309.6699895h2.8474478c2.0791991 0 3.4080141.43325993 4.2432651 1.11664891.649884.5337583 1.116647 1.72633941 1.116647 2.73579036 0 1.42261137-.482395 2.47002796-1.339976 3.18244976-1.0719882.89108531-2.755891 1.28414645-4.8015925 1.28414645h-2.9591161v-7.31405147c0-.80175391.1250545-1.00498401.8933247-1.00498401zm-11.6689906 2.79162249c-.3841279 3.11321701-1.6459478 3.84127294-3.5174431 4.01993645v.66998886h2.2332939v9.7148481c0 2.3159282 1.3913459 3.0149502 2.9032891 3.0149502 1.2149146 0 2.1327938-.3796592 2.9032819-1.0608163l-.4466516-.6699889c-.5962962.4466581-1.1546232.7258223-1.8424763.7258223-1.0362512 0-1.4516446-.7302889-1.4516446-2.1216327v-9.6031827h3.1266185v-.94915095h-3.1266185v-3.74077436zm-20.8813379 3.40577957c-1.9005355 0-3.3097471.54715877-4.4665969 1.61914195-1.1858787 1.15461329-1.7866372 3.01718529-1.7866372 5.35991449 0 2.7022919.6856216 4.4866947 1.8424692 5.5832452 1.1881159 1.0384834 2.6330602 1.4516424 4.4107649 1.4516424 1.8692716 0 3.2807147-.4421929 4.4665962-1.5074758 1.1300496-1.0987813 1.8424699-2.8541545 1.8424699-5.5274118 0-2.3427292-.6833886-4.1450012-1.8424699-5.30408321-1.1568476-1.09878271-2.4811947-1.67497323-4.4665962-1.67497323zm51.7566844 0c-1.57001 0-2.577228.39082749-3.349955.83748697-.951377.56279076-1.563292 1.3533782-1.563292 2.06579997 0 .4488939.272453.8933197.837483.8933197.623083 0 .913408-.3104282 1.060799-.725823.270242-.6543547.506972-1.15684762.893325-1.45164169.533758-.41985996 1.118886-.669991 2.009978-.669991.98041 0 1.679432.29926209 2.121619.89332038.388606.50472511.5025 1.38464431.5025 2.06580141v1.2841443l-1.730808.3908282c-1.900536.413159-3.399078 1.0474166-4.410761 1.7308052-1.304246.8575856-1.842469 1.9295709-1.842469 3.2941131 0 1.1278173.460052 1.9474379 1.172474 2.512463.772727.6230893 1.784403.8933175 2.735801.8933175 1.958602 0 3.124379-.6677559 4.131597-1.6191398h.111661c.270242.9759512.920126 1.5074759 1.954145 1.5074759.774952 0 1.281917-.1541865 1.786642-.3908268l-.167417-.7258223c-.236723.1474024-.489086.2233301-.781657.2233301-.591817 0-.89331-.5627915-.89331-1.8983026v-6.9790571c0-1.3042465-.236737-2.09706684-1.004993-2.95912039-.743687-.82855308-1.791099-1.17248105-3.573277-1.17248105zm10.943154 0c-.980418.7124218-1.992093 1.02061707-3.294114 1.22831375v.66998886c1.569931-.02911848 1.730801.17866493 1.730801 1.89830403v7.2023872c0 1.7822595-.131851 1.9541339-1.730801 1.9541339v.7258216h5.192417v-.7258216c-1.395818 0-1.451638-.1718744-1.451638-1.9541339v-7.1465552c1.188107-1.63477323 2.55042-2.79162229 3.796607-2.79162229.799514 0 1.342209.23002963 1.730808.61415688.562784.59628981.669981 1.52310921.669981 2.67995761v6.644063c0 1.7822595-.080374 1.9541339-1.507464 1.9541339v.7258216h5.024914v-.7258216c-1.335419 0-1.451651-.2367292-1.451651-1.8983019v-6.8115611c0-1.5700074-.377417-2.63975692-1.060806-3.29411379-.65213-.62309005-1.572242-.94915095-2.847455-.94915095-1.63254 0-3.166827.94468507-4.354934 2.45662824h-.055805l-.111676-2.28913013-.279156-.16749811zm-62.7556696.94915095c1.248413 0 2.2757281.39529479 2.9591175 1.22831446.7995227 1.03848343 1.2283152 2.51469383 1.2283152 4.80159103 0 2.403027-.5426901 3.9060362-1.2841465 4.8574222-.6811571.7704889-1.6012742 1.2841479-2.847455 1.2841479-1.2461801 0-2.2243656-.513659-2.9032876-1.2841479-.7414557-.951386-1.2283131-2.4543952-1.2283131-4.8574222 0-2.2868972.4310247-3.7631076 1.2283131-4.80159103.7101895-.83301967 1.6615734-1.22831446 2.8474564-1.22831446zm31.712835 2.28913009h3.6849313c2.4298365 0 4.0981063.424328 5.1365903 1.2283138 1.063045.8017549 1.61914 1.9318045 1.61914 3.2382831 0 1.5454422-.46006 2.6665571-1.172474 3.4057806-1.009451 1.0407163-2.35837 1.4516431-4.4665952 1.4516431h-3.6849526c-.9201185 0-1.1166398-.2076974-1.1166398-1.4516431zm22.6121376 2.8474557v5.2482498c-.743687.7392213-1.726344 1.5633078-3.182453 1.5633078-.888853 0-1.563298-.3059602-2.009957-.7258195-.446666-.4421936-.614161-1.067518-.614161-1.8424713 0-1.3623114.799514-2.1707666 1.95413-2.7916244 1.096557-.681155 2.574995-1.096549 3.852441-1.4516424z"/></g></svg>