<svg height="60" viewBox="0 0 180 60" width="180" xmlns="http://www.w3.org/2000/svg"><g fill="none"><g transform="translate(15 12)"><path d="m5.07241388.01780698-5.02674005 4.92130912v13.2231569l4.36970594 4.4604718h2.00383039c-.04878809.1342011-.11275328.3411283.02635555.5436495.15129094.2244855.41237363.2244855.5124197.2244855.11712574 0 .28060316-.0146316.53195471-.0488027h.00294843s.10492182.0932081-.2147252.1981285c-.26352639.0927237-.49337923.245955-.56903198.5094669-.00499794.0194899-.00684089.0395588-.01171374.0566093h-6.6497612l-.0019826 6.7587094 5.0267687 4.9387379h13.22024777l5.02674-4.931756v-12.6660525l-4.3705786-4.4536352h-3.7059808c-.0025019 0-.005862-.0019491-.005862-.0019491-.1634803-.097601-.331368-.2005722-.4850881-.3006182l-.0566079-.0361144-.0097602-.0058561c-.0829635-.0512216-.1703169-.1141962-.2654756-.1971539-.0829634-.0658838-.1517709-.1317617-.2030158-.1903319l-.0146418-.0146418c-.0976009-.1024883-.1830008-.2005721-.2488933-.2859706.5782831.1659241 1.2083347.2078887 1.510873.217649h.0361143c.0194899 0 .0395588.0029484.0566094.0029484l.0263512.0019491c.0731988.004998.1293224.0170361.165924.0292793.0390439.0146171.0736891.032232.105412.0468491l.1561638.0585629c.0366045.0097442.0756382.0117137.1171257.0117137.2269292 0 .4392107-.1366447.5367985-.3513685.0317331-.0732047.0805256-.219118.0439211-.4118791l6.6099057.0048976v-7.3834517l-5.0257219-4.92899222h-13.22024773z" fill="#fff"/><path d="m22.7190962 5.2079808-4.6692041-4.5800383h-12.73485416l-4.67036777 4.57261994v12.71041726l4.01871561 4.0992993 2.59133555.0025019c-.29037795.2610827-.38064923.5319256-.42702126.6636961-.10003879.2903634-.20496497.3733181.70516618.2464496.28793425-.0414774.81255788-.2269291 1.0589784-.3928531.24156222-.1659241.71978472-.0317332.67831463.3269752-.22448545.5490024-.80031031.8930689-1.34938544.9614051-1.26392883.1586075-.71735558.629528-.71735558.629528.13908556.0951674.23913307.1878882.30989843.2708574h-.61489491v-.0025018h-6.25149701l-.00249867 5.8878518 4.66789497 4.5873112h12.73732693l4.6677496-4.5800383v-12.1514219l-4.0187156-4.0943538h-3.2476424c-.258639-.1732551-.6075784-.3660161-.9247933-.5734102 0-.002499 0-.002499-.0025019-.002499-.1220015-.070761-.2415622-.1585929-.3562414-.258639-.0951601-.0756396-.1805571-.1561638-.2537661-.2366894-.2806032-.2928071-.490441-.5978181-.5465733-.7393488-.1049233-.258639-.0805183-.5856142.1561638-.4514146.6002618.3464957 1.5860748.4123737 1.9520473.4245776.0414774 0 .3367209.0341681.4074863.0560944.0731974.0292967.1854445.0829606.1854445.0829606.1488472.0634401.4172464-.141522.1073655-.5197362-.0805242-.1293224-.2025213-.2781741-.3464957-.4294505h6.8880215v-6.51012141" fill="#000"/><path d="m5.5550782 1.23804003-4.31143113 4.2238061v12.19419347l3.66989483 3.7435558h3.44530477c.58800706-.2583368.71252073-.2362269.87590128-.5655481.02443726-.0523656.04864178-.2036438.05120188-.3514311.00733118-.0418924.08064296-.4864179-.1341722-.3781957-.36842081.185025-1.11270998-.3037203-1.66906497-.0128005-.55635498.2874288-.14883455-.380523-.07075169-.4957273 0 0 .29766912-.3921598.74661653-.6516603.01710608-.0093094.03176844-.0186189.0438707-.029092.04398707-.0244372.08797414-.0453835.13440494-.0674934.34153982-.159424 1.3149574-.8075933 1.49067295-1.0100734.10496386-.1175316.29045431-.3863415.29778551-.5352924.031652-.1291684.0562057-.3339759-.0681916-.4142698-.18549047-.1221863-.3344414.1163679-.62477934.2467-.29045431.1291684-.51004056.1826976-.76872642.192007-.2487946.0081458-.48793066-.0872759-.63676522-.065166-.14895093.0244373-.2368087-.0884396.03653953-.3642316.12439729-.1245136.17827564-.1803702.2368087-.2222627.64910021-.4165971 1.23221982-.4212518 1.55921365-1.1613517 0 0 .2537984-.6632971-.23669233-.3805231-.26834441.155933-.41473524.3805231-1.18346167.3805231-.76616633 0-1.06639554.3642315-1.19568029.5224919 0 0-.52202646.7296268-.39274171-.2932471.13184485-1.019383.32932119-1.5395475.81003704-1.9375258.41473524-.340958 1.44435852-.7994475 1.81533942-1.3044843.19026154-.188516.66865004-.7354452.39041435-1.1984731-.11718249-.1952654-.40251661.310586-.697742.375752-.33676874.0884396-.76372261.1978254-1.09071644.1314957-.4050767-.0802938-.66376257.0733118-.81504086.1419689-.15127828.0686571-.43684514-.1489509-.08797414-.5466965.46849722-.5343614 1.60087337-1.2321034 2.36215225-1.64939875.10496385-.04398707.36097326-.15616574.59522188-.3050003.0048874-.00256009.0097749-.00500382.012335-.00500382.058533-.02688099.1439471-.07819924.1927052-.14406347.1659407-.13917603.2806795-.29510903.2415798-.45371849-.0340958-.14394711-.1050802-.19282163-.3295539-.21725889-.1780429-.01710609-.47315192.1903779-.72206289.17094446-.38063944-.03176844-.93955452.05597296-.75406407-.21481517.17315546-.25135469.45371849-.41252424.53424509-.45639495.15616574-.07075169.36609345-.16338055.6759812-.30255657.48560327-.21958625.41717897-.77093742.22936117-.79037086-.29289805-.03176844-1.08338528.22179724-.52714666-.41252424 0 0 .26368969-.26590068.52959036-.4391725.2098114-.12195358.3830832-.16838437.5904508-.24413988.1294011-.04631443.4687299-.34642728-.336536-.37819572 0 0-.4490638.01221863-.3636497-.19514899.0707517-.13661592.4661698-.38552689.4661698-.38552689s.3169862-.21725889.4463873-.34654364c.1243973-.11962621.2122551-.2146988.2049239-.32210638-.0048874-.12195357-.3221064-.27323186-.4563949-.44405995-.0950726-.12206994-.014546-.16582428.0390996-.18048663.0293247-.00477109.0635369-.00977491.1050802-.00977491.3268775.00244373.4196227-.3245501.6104661-1.17368676.0558566-.25379841.0605113-.30732765.1431325-.30977138.0081458 0 .0128005.00244373.0174552.00244373 0 0 .0802939.42939759.1978255.91011344.1000764.26590067.2094622.37819571.4026329.37563562.0384014 0 .0733118.00477108.1024038.0097749.0535292.01466236.1361504.0587658.0384014.18071937-.0733118.09518895-.2920835.24891096-.3095386.34165619-.0628387.26345695.188516.3586459.4445254.37819571.3630679.02432089.2117896.25123832-.1803703.54157626-.3781957.28056304.5899853.8809051.5899853.8809051.5515839.42707023.1582604.53668881.0465472.59778196-.1128769.05853306-.4224155.24891096-.1128769.37086454.3130297.11962621.7424273.55146753.7424273.55146753.5539113.63432149-.2350632.38319953-.5271466.41252425-.1885161.01943344-.2560094.57322833.2292447.79048722.7389363.33420865.903015.39041435 1.1636792.5856797.4875815.36108964.2292447.66853366-.3805231.56112608 0 0-.3898325-.09751631-.6632971-.04387071-.1710608.03176844-.2885924.07075169-.3688863.11229504-.0418924.06342051-.1384778.31465885.7098443.57567205.4049603.126841.9076697.4320741 1.3545225.7809451l6.9599648-.0072148-.0011637-5.63883995-4.3114311-4.22857719h-12.25354116zm10.5094189 13.73723197c.2001528.3316486.3165207.7657009.4026329 1.4033971.0023274.3828504-.5027093.1966617-.6667881.0965853-.1140405-.0779665-.2653188-.1501146-.4608169-.1966617-.3688863-.0884397-1.2463004-.4736174-1.4860183-.5597297-.2443726-.0896033-.4224155.090767-.4515075.159424h.0023274c-.0628387.1163679.0663297.3514311.0663297.3514311.344449.7808287.9786541.7389363 1.6756979 1.2393183.9588716.6830796.4468528.8273758.2490274.7249721-.1943344-.1047311-.5166736-.0395651-.5166736-.0395651-.7738466.2129533-1.0054187-.1093858-1.4592536-.2292448-.4515075-.1221863-.0802938.4398707.0826212.6272231.1733882.2024801 1.149715.8518131 1.4883456 1.0100734.7401.344449 1.1252777.903015 1.3545225 1.6128593.217608.6714428-.0197825.5248193-.1954981.4421981-.1757155-.0837849-.2269174-.2641552-.6632971-.2536821-.438707.0093094-.685407-.0221099-.9984366-.2688099-.0826213-.0640023-.148951-.1373141-.2048076-.1978254-.0046547-.0023274-.006982-.0046547-.0093094-.0069821-.3002292-.2292448-.2420453.5318014-.1803703.656315.2164444.4363797.3630679.2583368 1.6128593.9251249.5923127.3165207.7319542.7412636.7947928.9193065.1000764.2885925.2024802.3712137-.7051895.2443726-.2897561-.039565-.812248-.22459-1.0612754-.3933235-.2385542-.1652424-.7191537-.0314193-.6760975.3269938.22459.5492566.8006112.8937056 1.3498677.961199.4805995.061675.6982075.1664061.7854834.2734646.2629915.3002292-.22459.7400999-.22459.7400999-.2443726.282774.0197825.6144226.2001528.7121716.2932471.148951.8611225.4899089 1.0496386.9786542.9856362 2.5368204.0314193 1.809521-.435216 1.5197649-.467799-.2909198-1.3591772-1.0368381-2.1714253-.9716721-.812248.0640024-1.0833852.1082222-1.5663121-.2757919-.4805994-.3828505-.4340523.2373905-.4340523.2373905v3.0593124c.029092.685407.155933 1.3393947.7005348 1.8933059.4456892.4573259.7854835.3712137 1.4150339 1.1404056.2897561.3537584 1.2369909.7342815 1.8688686.7412636l1.2125537.0023273 4.3114311-4.2288099v-11.6414459l-3.6667529-3.73541zm-14.81828994 10.3532532-.00244373 5.0142933 4.31143114 4.2311373h1.38594183c1.30308788-.0640024 1.79101854-1.0740759 2.18632033-1.6954805.29766912-.4712901.82481576-.8715957 1.15914077-1.2137173.3537585-.3584132.4172953-1.178807.4269539-2.0666941v-1.8537409l.0025601.0186189v-.4433618h.0024437v-.2955745h.0002327v-.068657-.7994476c0-.1861886-.2146988-.2001528-.683196.3072113-.47094092.5050367-1.25898442.4631443-1.71526301.5050367-.45627858.0407288-1.76902499.7249721-2.14489335 1.214881-.23180488.304884-.56124244.0535293-.42707024-.5469291h-.00488745c.06342051-.2699736.18048663-.6342052.36842081-1.1148046.2585695-.6702792 1.2297761-1.0636028 1.2297761-1.0636028s.1000764-.0442198.18793417-.1291683z" fill="#fff"/></g><g fill="#fff" transform="translate(47.335329 17.389222)"><path d="m29.9128551 16.6721875c-2.6329468.9682763-2.9394827 2.971334-2.9394827 4.1024335 0 .9619059.3172379 4.1009045 4.4515225 4.1009045 1.9176965 0 3.1443496-.8752707 3.8167919-1.5749777.2808001.9682763 1.1232004 1.5423621 2.3350746 1.5423621 1.3994139 0 2.1847369-.7027647 3.0108294-1.6975411l.1669002-.2155688-.5019748-.572557-.2458912.2109823c-.1240922.1054911-.2754491.1521212-.498917.1521212-.8943815 0-1.0666327-.8345012-1.0666327-1.9131099 0-.4283348.0163078-1.1310995.0349089-1.9408842.0270098-1.1762008.058861-2.640846.058861-3.9520958 0-1.4939483-.0489234-2.9224105-.6897694-3.9548987-.8594725-1.30258634-2.2428335-1.9085234-4.369219-1.9085234-3.2745573 0-4.7679959 2.0163078-5.1428207 3.2032106l-.0759333.2349344.7641738.4578927.1651166-.3118869c.0061154-.0157981.8525927-1.5879729 2.9140018-1.5879729 1.4011976 0 2.4352146.6765193 2.7975538 1.7541088.1801503.563129.1801503.7802267.1801503 1.689642v.4841381c-1.8672442.583259-2.4482099.6981781-5.165244 1.6972862zm5.1685565 5.3497261c-.8169193.5850427-1.751051.7045484-2.4041279.7045484-1.9813989 0-2.2769779-1.3856543-2.2769779-2.2094535 0-1.0551662.4594216-1.9533698 1.3321442-2.397248.6291247-.3146898 1.3181297-.6546057 3.3492165-1.2643649v5.166518z"/><path d="m1.14613327 24.1136451c1.54694865.5027392 3.05185373.7195821 5.03172378.7195821 2.21404001 0 7.36374065-.5957447 7.36374065-6.1223086 0-3.2630909-1.8527201-4.5009555-3.82086894-5.8137342l-2.3101032-1.5296217c-2.0132501-1.3295961-2.93336731-1.93961009-2.93336731-3.73474323 0-1.30640846.39393553-3.04956046 3.77958976-3.04956046 1.43992865 0 2.80137599.29099249 3.41648619.90610269.4461715.45075806.6828895 1.03427188.738438 1.84405657l.0186011.2994012h.7743662l-.0239521-.47700344c-.0257358-.64008154-.0140146-1.26156198-.0140146-1.97528348 0-.90228054.0216588-1.73474328.0216588-1.74238756l.0101924-.27213658-.2754491-.04892343c-.0838323-.010702-2.1047267-.35596891-4.73002928-.35596891-6.39164224 0-6.88597273 4.29328576-6.88597273 5.60580965 0 2.68645688 1.29010065 4.03414448 3.82469104 5.70977198l1.82392662 1.2179895.27595872.1893235c1.72760861 1.1634603 2.97897823 2.0076443 2.97897823 4.0280291 0 2.3643776-1.35303862 3.4631163-4.26067017 3.4631163-1.38565422 0-2.87883807-.4377628-3.52758313-1.1716142-.42298382-.4762391-.65180278-1.1527584-.69129825-1.8402345l-.01554339-.3195311-.90075168-.0017837.04433686.7634094c.03185119.4716524.06370238 1.048796.06370238 2.5274557v1.106383z"/><path d="m25.4832463 11.3820869v-1.88762901h-5.1909798v-3.4305007h-.6655625l-.3429736.58351383c-.0178367.02650019-1.0317238 1.94725442-2.4981526 3.08370493-.4143203.32055035-.7718181.58427825-1.7082431.97209835l-.1984966.0812842v.5975284h2.0147789l-.0124856 1.063575c-.0257358 2.2655115-.0473946 4.2201554-.0473946 6.6563893 0 .8844439 0 2.3549497.2413046 3.1058734.5763792 1.8838068 1.8858453 2.7234042 4.2435979 2.7234042 2.7710537 0 3.94649-1.5331889 4.0007644-1.5935788l.1319914-.1472799-.2667856-.6222448-.3149446.1615492c-.0061154.0091731-.814626.4155943-1.8664798.4155943-2.2662759 0-2.7106638-1.3622117-2.7106638-3.7576761v-8.0038221h5.1909798v-.0017837z"/><path d="m53.7614983 20.7962798c-.0359282 1.0133775-.0652313 2.1847369-.5585425 2.6811059-.2637279.262199-.6734616.4283348-1.2646197.5213403l-.2744299.0341444v.7060772l.3521468-.0326156c1.3606829-.1302077 2.3350745-.1302077 3.4615875-.1302077.9868773 0 1.9301822.0527456 3.0271372.1085489l.755765.0387311v-.7121927l-.3011848-.0219136c-.437508-.0277742-.941776-.2076698-1.1792585-.42808-.4731813-.4405657-.5707734-1.1481718-.5707734-3.6649255v-4.4497388c0-.7448083-.0512167-2.1503376-.1984966-2.7274812-.5106383-2.3312524-2.3042426-3.61370876-5.0551663-3.61370876-2.1009045 0-3.6491272.89132374-4.4189068 1.46311636v-1.20703278l-.299656-.17683782-.175309.07822653c-.1860109.08867372-.7073512.40030577-1.6042808.54147025-1.1731431.22881892-2.284877.28920882-2.7550006.28920882-.0970825 0-.1714868 0-.2321315-.0076443l-.3445025-.0257358v.8704294l.2869155.0318512c.0379667.0015289.0812843.0076443.1256211.0094279.3684546.025481 1.0579692.0728756 1.3693465.5228692.2736654.4064212.3016944 1.2118741.3016944 3.0859982v4.3567334c0 2.5988024-.0277742 3.8978213-.5001911 4.4252771-.4510128.5070709-1.0964454.6082303-1.3515097.6298891l-.2925214.0216588v.7262072l.3414448-.0341445c1.3660339-.1271499 2.3987769-.1271499 3.5033762-.1271499.9557906 0 1.8741241.0496878 2.9292904.1024334l.8130972.0433176v-.7121926l-.299656-.0216588c-.4420945-.0295579-.9387183-.2094535-1.1790037-.4298637-.4703784-.4377628-.572557-1.1466429-.572557-3.6633966v-8.0061155c.640846-.3304879 1.4939483-.6416103 2.854886-.6416103 1.97987 0 3.0070072.9178239 3.2363358 2.888266.1240922 1.165244.1240922 2.3475602.1240922 3.4865588 0 .8762899 0 2.0744044-.0265002 2.6436488-.016053.1862658-.0254809.3600459-.0285386.5277106z"/><path d="m67.3874379 2.96114155c.4033635-.40667601 1.058224-.54936935 1.5359918-.54936935 1.1497006 0 1.989298.50503249 2.5694993 1.79844566l.0805198.19085234.3646325-.00484138 1.5112753-2.10217862-.0448465-.32284368-.1179768-.09478914c-.8237992-.66785578-2.2344248-1.16218627-3.7207287-1.16218627-3.4585298 0-5.5158619 1.59587209-6.1195057 4.74302459-.1832081.9466174-.223468 2.69129826-.2267805 4.04178876-.3908778.30653587-.9247038.58962924-1.7874888.94483374l-.1984967.0861256v.8533571h1.9859855v7.5568863c0 2.5988024-.0216588 3.883552-.4948401 4.4112625-.4499936.5088547-1.0938973.6097593-1.3543126.6253026l-.2963435.0265002v.7399669l.3521467-.0341445c1.3639955-.1274047 2.6500191-.1274047 3.7795898-.1274047.903045 0 2.1503376.0402599 3.8292776.1274047l.3381323.02013v-.8146261h-.3228437c-.3814499 0-1.6802141-.0466301-2.1021786-.6887502-.2685693-.3941903-.3338005-1.3716397-.3338005-3.3853994v-8.4555994h3.3978851v-1.88737419h-3.3973755v-2.94712703c0-1.94801885.1116066-2.93311249.7725825-3.58924703z"/><path d="m78.6067015 24.9947764c5.7237865 0 7.7548732-4.3972481 7.7548732-8.1704676 0-4.8510638-2.7802268-7.75079625-7.4335584-7.75079625-5.7253153 0-7.7515607 4.39954135-7.7515607 8.17148685 0 4.8531023 2.7802268 7.749777 7.4302459 7.749777zm-1.9658555-13.4666836c.5307682-.4594216 1.2582494-.6912983 2.1569626-.6912983 3.7515607 0 3.9408842 5.1247293 3.9408842 6.1521213 0 2.659447-.6174035 4.5305134-1.8402344 5.5545929-.5399414.4594216-1.2689515.6920627-2.1600204.6920627-3.7561473 0-3.9441967-5.1262581-3.9441967-6.1503376.0035673-2.6597019.6212256-4.5325519 1.8466047-5.557141z"/><path d="m95.0393681 11.6690024c1.3841253 0 2.0993757.6663269 2.454835 1.2251242l.096318.1472799h.6174035l1.2847496-2.349089v-.480316l-.1039623-.0986113c-.6283603-.56160016-1.4911453-.84775127-2.5537011-.84775127-1.6338387 0-2.7944961.73079374-3.5252898 1.41877947v-1.3234807l-.2683145-.14192891-.1768378.07975538c-.2576124.12256339-.8920881.3126513-1.6323098.43521468-1.1731431.23034782-2.282329.28946365-2.7555103.28946365-.0960632 0-.19391-.0015289-.2494585-.0078991l-.3274302-.0086635v.9231749l.2978723.0318512c.0310868.0015288.0744044.0076443.1179768.0094279.3707479.025481 1.0579692.0728756 1.369856.5228692.271627.4064212.2932858 1.2118741.2932858 3.0859982v4.3567333c0 2.5988024-.0186011 3.8509365-.4920372 4.378647-.4451522.5091094-1.096955.6112881-1.3530386.6286151l-.2994012.0231877v.7725825l.3539304-.0341445c1.3622118-.12715 2.6436489-.12715 3.7795898-.12715.8969295 0 2.1488088.0402599 3.8262199.12715l.3381322.02013v-.8454581h-.3180022c-.3862913 0-1.6740987-.0496878-2.1054912-.6872213-.262199-.3941903-.3289591-1.3423366-.3289591-3.3545674v-7.6817429c.4805708-.330488 1.0266276-.4879603 1.6595745-.4879603z"/><path d="m116.356733 23.3843802c-.361574-.0295579-1.025353-.1024335-1.339024-.5585425-.270098-.3664161-.29456-1.5173908-.29456-3.3762263v-12.42425785c0-2.01630781.012486-4.69970697.114665-5.95795643l.012485-.14880876-.26067-.15747229-.152121.058861c-.310358.11389986-.906103.24742005-1.507963.34450248-1.430755.28309339-3.191489.43062811-3.26462.43062811h-.322588l-.06676.6818703.290228.02777424c.033889.00407695.074404.00687986.121034.00866352.363104.02879348 1.031724.07924577 1.340553.52439801.270098.4064212.296344 1.42209199.296344 3.32195185v3.2381195c-.65639-.14040005-1.751816-.28946363-2.977705-.28946363-3.345139 0-5.998216 1.58415085-7.273538 4.35061795-.541725 1.1930182-.831953 2.611288-.831953 4.1009045 0 4.4994267 2.706077 7.4009428 6.889031 7.4009428 2.004586 0 3.503376-.8719582 4.26067-1.4305007v1.2878074l.408205.1365779.138106-.0619187c.270099-.1240922.812843-.2313671 1.554848-.3524016 1.29061-.2201554 2.618933-.3118869 2.960377-.3118869h.319531v-.8194674l-.288699-.0122309c-.034399-.0063702-.077971-.0094279-.125876-.0124856zm-5.034781-1.2225761c-.873742.5429991-1.880749.6235189-2.417378.6235189h-.139636c-4.425022 0-4.906102-3.9426679-4.906102-5.6384253 0-4.1798955 1.45063-6.2148044 4.420435-6.2148044 1.869793 0 2.794496.7756402 3.042681 1.023315z"/></g></g></svg>